<svg viewBox="0 0 77 26" fill="none" xmlns="http://www.w3.org/2000/svg">
<path d="M0 0.5V25.5H12.5V14H19V25H76.5V0.5H0Z" fill="currentColor" fill-opacity="0.5"/>
<path fill-rule="evenodd" clip-rule="evenodd" d="M28 8.45759L36.6743 6L45.3486 8.45759V18.6944L36.6743 20.9925L28 18.6944V8.45759ZM29.1449 9.08886L36.6743 6.98256L44.2037 9.08886V17.862L36.6743 19.8317L29.1449 17.862V9.08886Z" fill="white"/>
<path d="M28.7127 8.90016L36.6293 10.9701L44.6457 8.81982L44.9107 9.81165L36.6367 12.0313L28.4556 9.89223L28.7127 8.90016Z" fill="white"/>
<path d="M37.1508 11.7577V20.2563H36.1226V11.7577H37.1508Z" fill="white"/>
<path d="M32.4931 7.21216L42.1038 9.76696L41.5006 10.6704L32.229 8.20589L32.4931 7.21216Z" fill="white"/>
<path fill-rule="evenodd" clip-rule="evenodd" d="M39.5405 11.115V14.1594L41.8781 13.4364V10.2858L39.5405 11.115Z" fill="white"/>
</svg>
