<svg viewBox="0 0 32 47" fill="none" xmlns="http://www.w3.org/2000/svg">
<rect width="32" height="47" fill="currentColor" fill-opacity="0.5"/>
<path fill-rule="evenodd" clip-rule="evenodd" d="M7 21.4576L15.6743 19L24.3486 21.4576V31.6944L15.6743 33.9925L7 31.6944V21.4576ZM8.14489 22.0889L15.6743 19.9826L23.2037 22.0889V30.862L15.6743 32.8317L8.14489 30.862V22.0889Z" fill="white"/>
<path d="M7.71273 21.9002L15.6293 23.9701L23.6457 21.8198L23.9107 22.8117L15.6367 25.0313L7.45557 22.8922L7.71273 21.9002Z" fill="white"/>
<path d="M16.1508 24.7577V33.2563H15.1226V24.7577H16.1508Z" fill="white"/>
<path d="M11.4931 20.2122L21.1038 22.767L20.5006 23.6704L11.229 21.2059L11.4931 20.2122Z" fill="white"/>
<path fill-rule="evenodd" clip-rule="evenodd" d="M18.5405 24.115V27.1594L20.8781 26.4364V23.2858L18.5405 24.115Z" fill="white"/>
</svg>
