<svg viewBox="0 0 40 38" fill="none" xmlns="http://www.w3.org/2000/svg">
<rect width="40" height="38" fill="currentColor" fill-opacity="0.5"/>
<path fill-rule="evenodd" clip-rule="evenodd" d="M12 15.4576L20.6743 13L29.3486 15.4576V25.6944L20.6743 27.9925L12 25.6944V15.4576ZM13.1449 16.0889L20.6743 13.9826L28.2037 16.0889V24.862L20.6743 26.8317L13.1449 24.862V16.0889Z" fill="white"/>
<path d="M12.7127 15.9002L20.6293 17.9701L28.6457 15.8198L28.9107 16.8117L20.6367 19.0313L12.4556 16.8922L12.7127 15.9002Z" fill="white"/>
<path d="M21.1508 18.7577V27.2563H20.1226V18.7577H21.1508Z" fill="white"/>
<path d="M16.4931 14.2122L26.1038 16.767L25.5006 17.6704L16.229 15.2059L16.4931 14.2122Z" fill="white"/>
<path fill-rule="evenodd" clip-rule="evenodd" d="M23.5405 18.115V21.1594L25.8781 20.4364V17.2858L23.5405 18.115Z" fill="white"/>
</svg>
