<svg viewBox="0 0 38 55" fill="none" xmlns="http://www.w3.org/2000/svg">
<rect width="38" height="55" fill="currentColor" fill-opacity="0.5"/>
<path fill-rule="evenodd" clip-rule="evenodd" d="M10 24.4588L18.6743 22L27.3486 24.4588V34.7007L18.6743 37L10 34.7007V24.4588ZM11.1449 25.0904L18.6743 22.9831L26.2037 25.0904V33.868L18.6743 35.8386L11.1449 33.868V25.0904Z" fill="white"/>
<path d="M10.7122 24.9017L18.6288 26.9726L26.6452 24.8213L26.9102 25.8136L18.6362 28.0344L10.4551 25.8942L10.7122 24.9017Z" fill="white"/>
<path d="M19.1508 27.7606V36.2635H18.1226V27.7606H19.1508Z" fill="white"/>
<path d="M14.4936 23.2128L24.1043 25.7688L23.5011 26.6727L14.2295 24.207L14.4936 23.2128Z" fill="white"/>
<path fill-rule="evenodd" clip-rule="evenodd" d="M21.5405 27.1176V30.1636L23.8781 29.4402V26.288L21.5405 27.1176Z" fill="white"/>
</svg>
