<svg viewBox="0 0 77 30" fill="none" xmlns="http://www.w3.org/2000/svg">
<path d="M0.5 29.5V1H13V12.5H19.5V0.5H77V29.5C77 29.9 26 29.6667 0.5 29.5Z" fill="currentColor" fill-opacity="0.5"/>
<path fill-rule="evenodd" clip-rule="evenodd" d="M28 11.4588L36.6743 9L45.3486 11.4588V21.7007L36.6743 24L28 21.7007V11.4588ZM29.1449 12.0904L36.6743 9.98305L44.2037 12.0904V20.868L36.6743 22.8386L29.1449 20.868V12.0904Z" fill="white"/>
<path d="M28.7122 11.9017L36.6288 13.9726L44.6452 11.8213L44.9102 12.8136L36.6362 15.0344L28.4551 12.8942L28.7122 11.9017Z" fill="white"/>
<path d="M37.1508 14.7606V23.2635H36.1226V14.7606H37.1508Z" fill="white"/>
<path d="M32.4936 10.2128L42.1043 12.7688L41.5011 13.6727L32.2295 11.207L32.4936 10.2128Z" fill="white"/>
<path fill-rule="evenodd" clip-rule="evenodd" d="M39.5405 14.1176V17.1636L41.8781 16.4402V13.288L39.5405 14.1176Z" fill="white"/>
</svg>
