<svg viewBox="0 0 31 90" fill="none" xmlns="http://www.w3.org/2000/svg">
<path d="M0.5 90L0 0H17.5V11H24V0H30.5V90H24.5V80H18V90H0.5Z" fill="currentColor" fill-opacity="0.5"/>
<path fill-rule="evenodd" clip-rule="evenodd" d="M6 39.4576L14.6743 37L23.3486 39.4576V49.6944L14.6743 51.9925L6 49.6944V39.4576ZM7.14489 40.0889L14.6743 37.9826L22.2037 40.0889V48.862L14.6743 50.8317L7.14489 48.862V40.0889Z" fill="white"/>
<path d="M6.71273 39.9002L14.6293 41.9701L22.6457 39.8198L22.9107 40.8117L14.6367 43.0313L6.45557 40.8922L6.71273 39.9002Z" fill="white"/>
<path d="M15.1508 42.7577V51.2563H14.1226V42.7577H15.1508Z" fill="white"/>
<path d="M10.4931 38.2122L20.1038 40.767L19.5006 41.6704L10.229 39.2059L10.4931 38.2122Z" fill="white"/>
<path fill-rule="evenodd" clip-rule="evenodd" d="M17.5405 42.115V45.1594L19.8781 44.4364V41.2858L17.5405 42.115Z" fill="white"/>
</svg>
