<svg viewBox="0 0 35 47" fill="none" xmlns="http://www.w3.org/2000/svg">
<path d="M1 46.5V0H35V34.5H29V46.5H1Z" fill="currentColor" fill-opacity="0.5"/>
<path fill-rule="evenodd" clip-rule="evenodd" d="M9 18.4576L17.6743 16L26.3486 18.4576V28.6944L17.6743 30.9925L9 28.6944V18.4576ZM10.1449 19.0889L17.6743 16.9826L25.2037 19.0889V27.862L17.6743 29.8317L10.1449 27.862V19.0889Z" fill="white"/>
<path d="M9.71273 18.9002L17.6293 20.9701L25.6457 18.8198L25.9107 19.8117L17.6367 22.0313L9.45557 19.8922L9.71273 18.9002Z" fill="white"/>
<path d="M18.1508 21.7577V30.2563H17.1226V21.7577H18.1508Z" fill="white"/>
<path d="M13.4931 17.2122L23.1038 19.767L22.5006 20.6704L13.229 18.2059L13.4931 17.2122Z" fill="white"/>
<path fill-rule="evenodd" clip-rule="evenodd" d="M20.5405 21.115V24.1594L22.8781 23.4364V20.2858L20.5405 21.115Z" fill="white"/>
</svg>
