<svg viewBox="0 0 27 90" fill="none" xmlns="http://www.w3.org/2000/svg">
<path d="M0.5 90V0.5H21.5V11.5618H26.5V80.4466H21.5V90H0.5Z" fill="currentColor" fill-opacity="0.5"/>
<path d="M5.71273 41.1272L13.6293 43.2087L21.6457 41.0464L21.9107 42.0438L13.6367 44.2759L5.45557 42.1248L5.71273 41.1272Z" fill="white"/>
<path fill-rule="evenodd" clip-rule="evenodd" d="M5 40.6821L13.6743 38.2107L22.3486 40.6821V50.9764L13.6743 53.2874L5 50.9764V40.6821ZM6.14489 41.3169L13.6743 39.1988L21.2037 41.3169V50.1394L13.6743 52.1201L6.14489 50.1394V41.3169Z" fill="white"/>
<path d="M14.1508 44.0007V52.5471H13.1226V44.0007H14.1508Z" fill="white"/>
<path d="M9.49306 39.4297L19.1038 41.9988L18.5006 42.9073L9.229 40.429L9.49306 39.4297Z" fill="white"/>
<path fill-rule="evenodd" clip-rule="evenodd" d="M16.5405 43.3544V46.4159L18.8781 45.6889V42.5205L16.5405 43.3544Z" fill="white"/>
</svg>
