<svg viewBox="0 0 37 37" fill="none" xmlns="http://www.w3.org/2000/svg">
<rect width="37" height="37" fill="currentColor" fill-opacity="0.5"/>
<path fill-rule="evenodd" clip-rule="evenodd" d="M9 12.4588L17.6743 10L26.3486 12.4588V22.7007L17.6743 25L9 22.7007V12.4588ZM10.1449 13.0904L17.6743 10.9831L25.2037 13.0904V21.868L17.6743 23.8386L10.1449 21.868V13.0904Z" fill="white"/>
<path d="M9.71225 12.9017L17.6288 14.9726L25.6452 12.8213L25.9102 13.8136L17.6362 16.0344L9.45508 13.8942L9.71225 12.9017Z" fill="white"/>
<path d="M18.1508 15.7606V24.2635H17.1226V15.7606H18.1508Z" fill="white"/>
<path d="M13.4936 11.2128L23.1043 13.7688L22.5011 14.6727L13.2295 12.207L13.4936 11.2128Z" fill="white"/>
<path fill-rule="evenodd" clip-rule="evenodd" d="M20.5405 15.1176V18.1636L22.8781 17.4402V14.288L20.5405 15.1176Z" fill="white"/>
</svg>
