<svg viewBox="0 0 33 49" fill="none" xmlns="http://www.w3.org/2000/svg">
<rect width="33" height="49" fill="currentColor" fill-opacity="0.5"/>
<path fill-rule="evenodd" clip-rule="evenodd" d="M7 20.4576L15.6743 18L24.3486 20.4576V30.6944L15.6743 32.9925L7 30.6944V20.4576ZM8.14489 21.0889L15.6743 18.9826L23.2037 21.0889V29.862L15.6743 31.8317L8.14489 29.862V21.0889Z" fill="white"/>
<path d="M7.71273 20.9002L15.6293 22.9701L23.6457 20.8198L23.9107 21.8117L15.6367 24.0313L7.45557 21.8922L7.71273 20.9002Z" fill="white"/>
<path d="M16.1508 23.7577V32.2563H15.1226V23.7577H16.1508Z" fill="white"/>
<path d="M11.4931 19.2122L21.1038 21.767L20.5006 22.6704L11.229 20.2059L11.4931 19.2122Z" fill="white"/>
<path fill-rule="evenodd" clip-rule="evenodd" d="M18.5405 23.115V26.1594L20.8781 25.4364V22.2858L18.5405 23.115Z" fill="white"/>
</svg>
