<svg viewBox="0 0 55 34" fill="none" xmlns="http://www.w3.org/2000/svg">
<rect width="55" height="34" fill="currentColor" fill-opacity="0.5"/>
<path fill-rule="evenodd" clip-rule="evenodd" d="M18 12.4576L26.6743 10L35.3486 12.4576V22.6944L26.6743 24.9925L18 22.6944V12.4576ZM19.1449 13.0889L26.6743 10.9826L34.2037 13.0889V21.862L26.6743 23.8317L19.1449 21.862V13.0889Z" fill="white"/>
<path d="M18.7127 12.9002L26.6293 14.9701L34.6457 12.8198L34.9107 13.8117L26.6367 16.0313L18.4556 13.8922L18.7127 12.9002Z" fill="white"/>
<path d="M27.1508 15.7577V24.2563H26.1226V15.7577H27.1508Z" fill="white"/>
<path d="M22.4931 11.2122L32.1038 13.767L31.5006 14.6704L22.229 12.2059L22.4931 11.2122Z" fill="white"/>
<path fill-rule="evenodd" clip-rule="evenodd" d="M29.5405 15.115V18.1594L31.8781 17.4364V14.2858L29.5405 15.115Z" fill="white"/>
</svg>
