<svg viewBox="0 0 38 54" fill="none" xmlns="http://www.w3.org/2000/svg">
<rect width="38" height="54" fill="currentColor" fill-opacity="0.5"/>
<path fill-rule="evenodd" clip-rule="evenodd" d="M9 23.4588L17.6743 21L26.3486 23.4588V33.7007L17.6743 36L9 33.7007V23.4588ZM10.1449 24.0904L17.6743 21.9831L25.2037 24.0904V32.868L17.6743 34.8386L10.1449 32.868V24.0904Z" fill="white"/>
<path d="M9.71225 23.9017L17.6288 25.9726L25.6452 23.8213L25.9102 24.8136L17.6362 27.0344L9.45508 24.8942L9.71225 23.9017Z" fill="white"/>
<path d="M18.1508 26.7606V35.2635H17.1226V26.7606H18.1508Z" fill="white"/>
<path d="M13.4936 22.2128L23.1043 24.7688L22.5011 25.6727L13.2295 23.207L13.4936 22.2128Z" fill="white"/>
<path fill-rule="evenodd" clip-rule="evenodd" d="M20.5405 26.1176V29.1636L22.8781 28.4402V25.288L20.5405 26.1176Z" fill="white"/>
</svg>
