<svg viewBox="0 0 34 60" fill="none" xmlns="http://www.w3.org/2000/svg">
<rect width="34" height="60" fill="currentColor" fill-opacity="0.5"/>
<path fill-rule="evenodd" clip-rule="evenodd" d="M7 26.4576L15.6743 24L24.3486 26.4576V36.6944L15.6743 38.9925L7 36.6944V26.4576ZM8.14489 27.0889L15.6743 24.9826L23.2037 27.0889V35.862L15.6743 37.8317L8.14489 35.862V27.0889Z" fill="white"/>
<path d="M7.71273 26.9002L15.6293 28.9701L23.6457 26.8198L23.9107 27.8117L15.6367 30.0313L7.45557 27.8922L7.71273 26.9002Z" fill="white"/>
<path d="M16.1508 29.7577V38.2563H15.1226V29.7577H16.1508Z" fill="white"/>
<path d="M11.4931 25.2122L21.1038 27.767L20.5006 28.6704L11.229 26.2059L11.4931 25.2122Z" fill="white"/>
<path fill-rule="evenodd" clip-rule="evenodd" d="M18.5405 29.115V32.1594L20.8781 31.4364V28.2858L18.5405 29.115Z" fill="white"/>
</svg>
