<svg viewBox="0 0 29 37" fill="none" xmlns="http://www.w3.org/2000/svg">
<rect width="29" height="37" fill="currentColor" fill-opacity="0.5"/>
<path fill-rule="evenodd" clip-rule="evenodd" d="M6 12.4588L14.6743 10L23.3486 12.4588V22.7007L14.6743 25L6 22.7007V12.4588ZM7.14489 13.0904L14.6743 10.9831L22.2037 13.0904V21.868L14.6743 23.8386L7.14489 21.868V13.0904Z" fill="white"/>
<path d="M6.71225 12.9017L14.6288 14.9726L22.6452 12.8213L22.9102 13.8136L14.6362 16.0344L6.45508 13.8942L6.71225 12.9017Z" fill="white"/>
<path d="M15.1508 15.7606V24.2635H14.1226V15.7606H15.1508Z" fill="white"/>
<path d="M10.4936 11.2128L20.1043 13.7688L19.5011 14.6727L10.2295 12.207L10.4936 11.2128Z" fill="white"/>
<path fill-rule="evenodd" clip-rule="evenodd" d="M17.5405 15.1176V18.1636L19.8781 17.4402V14.288L17.5405 15.1176Z" fill="white"/>
</svg>
