<svg viewBox="0 0 41 36" fill="none" xmlns="http://www.w3.org/2000/svg">
<rect width="41" height="36" fill="currentColor" fill-opacity="0.5"/>
<path fill-rule="evenodd" clip-rule="evenodd" d="M12 14.4576L20.6743 12L29.3486 14.4576V24.6944L20.6743 26.9925L12 24.6944V14.4576ZM13.1449 15.0889L20.6743 12.9826L28.2037 15.0889V23.862L20.6743 25.8317L13.1449 23.862V15.0889Z" fill="white"/>
<path d="M12.7127 14.9002L20.6293 16.9701L28.6457 14.8198L28.9107 15.8117L20.6367 18.0313L12.4556 15.8922L12.7127 14.9002Z" fill="white"/>
<path d="M21.1508 17.7577V26.2563H20.1226V17.7577H21.1508Z" fill="white"/>
<path d="M16.4931 13.2122L26.1038 15.767L25.5006 16.6704L16.229 14.2059L16.4931 13.2122Z" fill="white"/>
<path fill-rule="evenodd" clip-rule="evenodd" d="M23.5405 17.115V20.1594L25.8781 19.4364V16.2858L23.5405 17.115Z" fill="white"/>
</svg>
