<svg viewBox="0 0 25 91" fill="none" xmlns="http://www.w3.org/2000/svg">
<rect width="25" height="91" fill="currentColor" fill-opacity="0.5"/>
<path fill-rule="evenodd" clip-rule="evenodd" d="M3 40.4576L11.6743 38L20.3486 40.4576V50.6944L11.6743 52.9925L3 50.6944V40.4576ZM4.14489 41.0889L11.6743 38.9826L19.2037 41.0889V49.862L11.6743 51.8317L4.14489 49.862V41.0889Z" fill="white"/>
<path d="M3.71273 40.9002L11.6293 42.9701L19.6457 40.8198L19.9107 41.8117L11.6367 44.0313L3.45557 41.8922L3.71273 40.9002Z" fill="white"/>
<path d="M12.1508 43.7577V52.2563H11.1226V43.7577H12.1508Z" fill="white"/>
<path d="M7.49306 39.2122L17.1038 41.767L16.5006 42.6704L7.229 40.2059L7.49306 39.2122Z" fill="white"/>
<path fill-rule="evenodd" clip-rule="evenodd" d="M14.5405 43.115V46.1594L16.8781 45.4364V42.2858L14.5405 43.115Z" fill="white"/>
</svg>
