<svg viewBox="0 0 23 59" fill="none" xmlns="http://www.w3.org/2000/svg">
<rect width="23" height="59" fill="currentColor" fill-opacity="0.5"/>
<path fill-rule="evenodd" clip-rule="evenodd" d="M3 26.4576L11.6743 24L20.3486 26.4576V36.6944L11.6743 38.9925L3 36.6944V26.4576ZM4.14489 27.0889L11.6743 24.9826L19.2037 27.0889V35.862L11.6743 37.8317L4.14489 35.862V27.0889Z" fill="white"/>
<path d="M3.71273 26.9002L11.6293 28.9701L19.6457 26.8198L19.9107 27.8117L11.6367 30.0313L3.45557 27.8922L3.71273 26.9002Z" fill="white"/>
<path d="M12.1508 29.7577V38.2563H11.1226V29.7577H12.1508Z" fill="white"/>
<path d="M7.49306 25.2122L17.1038 27.767L16.5006 28.6704L7.229 26.2059L7.49306 25.2122Z" fill="white"/>
<path fill-rule="evenodd" clip-rule="evenodd" d="M14.5405 29.115V32.1594L16.8781 31.4364V28.2858L14.5405 29.115Z" fill="white"/>
</svg>
