<svg viewBox="0 0 25 90" fill="none" xmlns="http://www.w3.org/2000/svg">
<path d="M0 89.5V0H21V10.5H25V79H21V89.5H0Z" fill="currentColor" fill-opacity="0.5"/>
<path fill-rule="evenodd" clip-rule="evenodd" d="M4 40.9576L12.6743 38.5L21.3486 40.9576V51.1944L12.6743 53.4925L4 51.1944V40.9576ZM5.14489 41.5889L12.6743 39.4826L20.2037 41.5889V50.362L12.6743 52.3317L5.14489 50.362V41.5889Z" fill="white"/>
<path d="M4.71261 41.4002L12.6292 43.4701L20.6456 41.3198L20.9106 42.3117L12.6365 44.5313L4.45544 42.3922L4.71261 41.4002Z" fill="white"/>
<path d="M13.1506 44.2578V52.7565H12.1224V44.2578H13.1506Z" fill="white"/>
<path d="M8.49331 39.7122L18.104 42.267L17.5008 43.1704L8.22925 40.7059L8.49331 39.7122Z" fill="white"/>
<path fill-rule="evenodd" clip-rule="evenodd" d="M15.5406 43.6149V46.6593L17.8782 45.9363V42.7856L15.5406 43.6149Z" fill="white"/>
</svg>
