<svg viewBox="0 0 32 79" fill="none" xmlns="http://www.w3.org/2000/svg">
<rect width="32" height="79" fill="currentColor" fill-opacity="0.5"/>
<path fill-rule="evenodd" clip-rule="evenodd" d="M7 35.4576L15.6743 33L24.3486 35.4576V45.6944L15.6743 47.9925L7 45.6944V35.4576ZM8.14489 36.0889L15.6743 33.9826L23.2037 36.0889V44.862L15.6743 46.8317L8.14489 44.862V36.0889Z" fill="white"/>
<path d="M7.71273 35.9002L15.6293 37.9701L23.6457 35.8198L23.9107 36.8117L15.6367 39.0313L7.45557 36.8922L7.71273 35.9002Z" fill="white"/>
<path d="M16.1508 38.7577V47.2563H15.1226V38.7577H16.1508Z" fill="white"/>
<path d="M11.4931 34.2122L21.1038 36.767L20.5006 37.6704L11.229 35.2059L11.4931 34.2122Z" fill="white"/>
<path fill-rule="evenodd" clip-rule="evenodd" d="M18.5405 38.115V41.1594L20.8781 40.4364V37.2858L18.5405 38.115Z" fill="white"/>
</svg>
