<svg viewBox="0 0 34 60" fill="none" xmlns="http://www.w3.org/2000/svg">
<path d="M0 59.5V0H34V39H27.5V52H34V59.5H0Z" fill="currentColor" fill-opacity="0.5"/>
<path fill-rule="evenodd" clip-rule="evenodd" d="M7 27.4576L15.6743 25L24.3486 27.4576V37.6944L15.6743 39.9925L7 37.6944V27.4576ZM8.14489 28.0889L15.6743 25.9826L23.2037 28.0889V36.862L15.6743 38.8317L8.14489 36.862V28.0889Z" fill="white"/>
<path d="M7.71273 27.9002L15.6293 29.9701L23.6457 27.8198L23.9107 28.8117L15.6367 31.0313L7.45557 28.8922L7.71273 27.9002Z" fill="white"/>
<path d="M16.1508 30.7577V39.2563H15.1226V30.7577H16.1508Z" fill="white"/>
<path d="M11.4931 26.2122L21.1038 28.767L20.5006 29.6704L11.229 27.2059L11.4931 26.2122Z" fill="white"/>
<path fill-rule="evenodd" clip-rule="evenodd" d="M18.5405 30.115V33.1594L20.8781 32.4364V29.2858L18.5405 30.115Z" fill="white"/>
</svg>
