<svg viewBox="0 0 46 91" fill="none" xmlns="http://www.w3.org/2000/svg">
<path d="M0.492432 0V91C18.8924 91 32.8258 78.3333 37.4924 72C42.8258 65 50.9924 46 40.9924 26C30.9924 6 9.82576 0.333333 0.492432 0Z" fill="currentColor" fill-opacity="0.5"/>
<path fill-rule="evenodd" clip-rule="evenodd" d="M13.4924 40.4576L22.1667 38L30.841 40.4576V50.6944L22.1667 52.9925L13.4924 50.6944V40.4576ZM14.6373 41.0889L22.1667 38.9826L29.6961 41.0889V49.862L22.1667 51.8317L14.6373 49.862V41.0889Z" fill="white"/>
<path d="M14.205 40.9002L22.1216 42.9701L30.138 40.8198L30.403 41.8117L22.129 44.0313L13.9479 41.8922L14.205 40.9002Z" fill="white"/>
<path d="M22.6431 43.7577V52.2563H21.6149V43.7577H22.6431Z" fill="white"/>
<path d="M17.9857 39.2122L27.5965 41.767L26.9933 42.6704L17.7217 40.2059L17.9857 39.2122Z" fill="white"/>
<path fill-rule="evenodd" clip-rule="evenodd" d="M25.0331 43.115V46.1594L27.3706 45.4364V42.2858L25.0331 43.115Z" fill="white"/>
</svg>
