<svg viewBox="0 0 32 40" fill="none" xmlns="http://www.w3.org/2000/svg">
<rect width="32" height="40" fill="currentColor" fill-opacity="0.5"/>
<path fill-rule="evenodd" clip-rule="evenodd" d="M8 15.4576L16.6743 13L25.3486 15.4576V25.6944L16.6743 27.9925L8 25.6944V15.4576ZM9.14489 16.0889L16.6743 13.9826L24.2037 16.0889V24.862L16.6743 26.8317L9.14489 24.862V16.0889Z" fill="white"/>
<path d="M8.71273 15.9002L16.6293 17.9701L24.6457 15.8198L24.9107 16.8117L16.6367 19.0313L8.45557 16.8922L8.71273 15.9002Z" fill="white"/>
<path d="M17.1508 18.7577V27.2563H16.1226V18.7577H17.1508Z" fill="white"/>
<path d="M12.4931 14.2122L22.1038 16.767L21.5006 17.6704L12.229 15.2059L12.4931 14.2122Z" fill="white"/>
<path fill-rule="evenodd" clip-rule="evenodd" d="M19.5405 18.115V21.1594L21.8781 20.4364V17.2858L19.5405 18.115Z" fill="white"/>
</svg>
