<svg viewBox="0 0 34 89" fill="none" xmlns="http://www.w3.org/2000/svg">
<path d="M0 89V0.5H33.5V89H0Z" fill="currentColor" fill-opacity="0.5"/>
<path fill-rule="evenodd" clip-rule="evenodd" d="M9 41.9576L17.6743 39.5L26.3486 41.9576V52.1944L17.6743 54.4925L9 52.1944V41.9576ZM10.1449 42.5889L17.6743 40.4826L25.2037 42.5889V51.362L17.6743 53.3317L10.1449 51.362V42.5889Z" fill="white"/>
<path d="M9.71261 42.4002L17.6292 44.4701L25.6456 42.3198L25.9106 43.3117L17.6365 45.5313L9.45544 43.3922L9.71261 42.4002Z" fill="white"/>
<path d="M18.1506 45.2577V53.7563H17.1224V45.2577H18.1506Z" fill="white"/>
<path d="M13.4933 40.7122L23.104 43.267L22.5008 44.1704L13.2292 41.7059L13.4933 40.7122Z" fill="white"/>
<path fill-rule="evenodd" clip-rule="evenodd" d="M20.5406 44.615V47.6594L22.8782 46.9364V43.7858L20.5406 44.615Z" fill="white"/>
</svg>
