<svg viewBox="0 0 32 53" fill="none" xmlns="http://www.w3.org/2000/svg">
<rect width="32" height="53" fill="currentColor" fill-opacity="0.5"/>
<path fill-rule="evenodd" clip-rule="evenodd" d="M7 23.4576L15.6743 21L24.3486 23.4576V33.6944L15.6743 35.9925L7 33.6944V23.4576ZM8.14489 24.0889L15.6743 21.9826L23.2037 24.0889V32.862L15.6743 34.8317L8.14489 32.862V24.0889Z" fill="white"/>
<path d="M7.71273 23.9002L15.6293 25.9701L23.6457 23.8198L23.9107 24.8117L15.6367 27.0313L7.45557 24.8922L7.71273 23.9002Z" fill="white"/>
<path d="M16.1508 26.7577V35.2563H15.1226V26.7577H16.1508Z" fill="white"/>
<path d="M11.4931 22.2122L21.1038 24.767L20.5006 25.6704L11.229 23.2059L11.4931 22.2122Z" fill="white"/>
<path fill-rule="evenodd" clip-rule="evenodd" d="M18.5405 26.115V29.1594L20.8781 28.4364V25.2858L18.5405 26.115Z" fill="white"/>
</svg>
