<svg viewBox="0 0 29 60" fill="none" xmlns="http://www.w3.org/2000/svg">
<path d="M0.5 60V0.5H29V49H24.5V60H0.5Z" fill="currentColor" fill-opacity="0.5"/>
<path fill-rule="evenodd" clip-rule="evenodd" d="M6 25.4588L14.6743 23L23.3486 25.4588V35.7007L14.6743 38L6 35.7007V25.4588ZM7.14489 26.0904L14.6743 23.9831L22.2037 26.0904V34.868L14.6743 36.8386L7.14489 34.868V26.0904Z" fill="white"/>
<path d="M6.71225 25.9017L14.6288 27.9726L22.6452 25.8213L22.9102 26.8136L14.6362 29.0344L6.45508 26.8942L6.71225 25.9017Z" fill="white"/>
<path d="M15.1508 28.7606V37.2635H14.1226V28.7606H15.1508Z" fill="white"/>
<path d="M10.4936 24.2128L20.1043 26.7688L19.5011 27.6727L10.2295 25.207L10.4936 24.2128Z" fill="white"/>
<path fill-rule="evenodd" clip-rule="evenodd" d="M17.5405 28.1176V31.1636L19.8781 30.4402V27.288L17.5405 28.1176Z" fill="white"/>
</svg>
