<svg viewBox="0 0 43 37" fill="none" xmlns="http://www.w3.org/2000/svg">
<rect width="43" height="37" fill="currentColor" fill-opacity="0.5"/>
<path fill-rule="evenodd" clip-rule="evenodd" d="M13 13.4588L21.6743 11L30.3486 13.4588V23.7007L21.6743 26L13 23.7007V13.4588ZM14.1449 14.0904L21.6743 11.9831L29.2037 14.0904V22.868L21.6743 24.8386L14.1449 22.868V14.0904Z" fill="white"/>
<path d="M13.7122 13.9017L21.6288 15.9726L29.6452 13.8213L29.9102 14.8136L21.6362 17.0344L13.4551 14.8942L13.7122 13.9017Z" fill="white"/>
<path d="M22.1508 16.7606V25.2635H21.1226V16.7606H22.1508Z" fill="white"/>
<path d="M17.4936 12.2128L27.1043 14.7688L26.5011 15.6727L17.2295 13.207L17.4936 12.2128Z" fill="white"/>
<path fill-rule="evenodd" clip-rule="evenodd" d="M24.5405 16.1176V19.1636L26.8781 18.4402V15.288L24.5405 16.1176Z" fill="white"/>
</svg>
