<svg viewBox="0 0 49 36" fill="none" xmlns="http://www.w3.org/2000/svg">
<path d="M49 25.5V0H0.5V36H44.5V25.5H49Z" fill="currentColor" fill-opacity="0.5"/>
<path fill-rule="evenodd" clip-rule="evenodd" d="M17 14.4576L25.6743 12L34.3486 14.4576V24.6944L25.6743 26.9925L17 24.6944V14.4576ZM18.1449 15.0889L25.6743 12.9826L33.2037 15.0889V23.862L25.6743 25.8317L18.1449 23.862V15.0889Z" fill="white"/>
<path d="M17.7127 14.9002L25.6293 16.9701L33.6457 14.8198L33.9107 15.8117L25.6367 18.0313L17.4556 15.8922L17.7127 14.9002Z" fill="white"/>
<path d="M26.1508 17.7577V26.2563H25.1226V17.7577H26.1508Z" fill="white"/>
<path d="M21.4931 13.2122L31.1038 15.767L30.5006 16.6704L21.229 14.2059L21.4931 13.2122Z" fill="white"/>
<path fill-rule="evenodd" clip-rule="evenodd" d="M28.5405 17.115V20.1594L30.8781 19.4364V16.2858L28.5405 17.115Z" fill="white"/>
</svg>
