<svg viewBox="0 0 26 53" fill="none" xmlns="http://www.w3.org/2000/svg">
<path d="M0 52.5V0.5H20.5V11.5H26V52.5H0Z" fill="currentColor" fill-opacity="0.5"/>
<path fill-rule="evenodd" clip-rule="evenodd" d="M4 25.4576L12.6743 23L21.3486 25.4576V35.6944L12.6743 37.9925L4 35.6944V25.4576ZM5.14489 26.0889L12.6743 23.9826L20.2037 26.0889V34.862L12.6743 36.8317L5.14489 34.862V26.0889Z" fill="white"/>
<path d="M4.71273 25.9002L12.6293 27.9701L20.6457 25.8198L20.9107 26.8117L12.6367 29.0313L4.45557 26.8922L4.71273 25.9002Z" fill="white"/>
<path d="M13.1508 28.7577V37.2563H12.1226V28.7577H13.1508Z" fill="white"/>
<path d="M8.49306 24.2122L18.1038 26.767L17.5006 27.6704L8.229 25.2059L8.49306 24.2122Z" fill="white"/>
<path fill-rule="evenodd" clip-rule="evenodd" d="M15.5405 28.115V31.1594L17.8781 30.4364V27.2858L15.5405 28.115Z" fill="white"/>
</svg>
