<svg viewBox="0 0 28 65" fill="none" xmlns="http://www.w3.org/2000/svg">
<path d="M0.5 65V0.5H24.5V10.5H27.5V65H0.5Z" fill="currentColor" fill-opacity="0.5"/>
<path fill-rule="evenodd" clip-rule="evenodd" d="M5 30.4576L13.6743 28L22.3486 30.4576V40.6944L13.6743 42.9925L5 40.6944V30.4576ZM6.14489 31.0889L13.6743 28.9826L21.2037 31.0889V39.862L13.6743 41.8317L6.14489 39.862V31.0889Z" fill="white"/>
<path d="M5.71273 30.9002L13.6293 32.9701L21.6457 30.8198L21.9107 31.8117L13.6367 34.0313L5.45557 31.8922L5.71273 30.9002Z" fill="white"/>
<path d="M14.1508 33.7577V42.2563H13.1226V33.7577H14.1508Z" fill="white"/>
<path d="M9.49306 29.2122L19.1038 31.767L18.5006 32.6704L9.229 30.2059L9.49306 29.2122Z" fill="white"/>
<path fill-rule="evenodd" clip-rule="evenodd" d="M16.5405 33.115V36.1594L18.8781 35.4364V32.2858L16.5405 33.115Z" fill="white"/>
</svg>
