<svg viewBox="0 0 35 42" fill="none" xmlns="http://www.w3.org/2000/svg">
<rect width="35" height="42" fill="currentColor" fill-opacity="0.5"/>
<path fill-rule="evenodd" clip-rule="evenodd" d="M7 14.4652L15.6743 12.0076L24.3486 14.4652V24.7019L15.6743 27L7 24.7019V14.4652ZM8.14489 15.0964L15.6743 12.9901L23.2037 15.0964V23.8696L15.6743 25.8392L8.14489 23.8696V15.0964Z" fill="white"/>
<path d="M7.71273 14.9077L15.6293 16.9777L23.6457 14.8274L23.9107 15.8192L15.6367 18.0389L7.45557 15.8998L7.71273 14.9077Z" fill="white"/>
<path d="M16.1508 17.7653V26.2639H15.1226V17.7653H16.1508Z" fill="white"/>
<path d="M11.4931 13.2197L21.1038 15.7745L20.5006 16.6779L11.229 14.2135L11.4931 13.2197Z" fill="white"/>
<path fill-rule="evenodd" clip-rule="evenodd" d="M18.5405 17.1226V20.167L20.8781 19.444V16.2933L18.5405 17.1226Z" fill="white"/>
</svg>
