<svg viewBox="0 0 28 63" fill="none" xmlns="http://www.w3.org/2000/svg">
<path d="M27.5 0.5H0.5V62.5H25V52H27.5V0.5Z" fill="currentColor" fill-opacity="0.5"/>
<path fill-rule="evenodd" clip-rule="evenodd" d="M5 28.4576L13.6743 26L22.3486 28.4576V38.6944L13.6743 40.9925L5 38.6944V28.4576ZM6.14489 29.0889L13.6743 26.9826L21.2037 29.0889V37.862L13.6743 39.8317L6.14489 37.862V29.0889Z" fill="white"/>
<path d="M5.71273 28.9002L13.6293 30.9701L21.6457 28.8198L21.9107 29.8117L13.6367 32.0313L5.45557 29.8922L5.71273 28.9002Z" fill="white"/>
<path d="M14.1508 31.7577V40.2563H13.1226V31.7577H14.1508Z" fill="white"/>
<path d="M9.49306 27.2122L19.1038 29.767L18.5006 30.6704L9.229 28.2059L9.49306 27.2122Z" fill="white"/>
<path fill-rule="evenodd" clip-rule="evenodd" d="M16.5405 31.115V34.1594L18.8781 33.4364V30.2858L16.5405 31.115Z" fill="white"/>
</svg>
