<svg viewBox="0 0 26 53" fill="none" xmlns="http://www.w3.org/2000/svg">
<path d="M0 53V0.5H25.5V41.5H21V53H0Z" fill="currentColor" fill-opacity="0.5"/>
<path fill-rule="evenodd" clip-rule="evenodd" d="M4 24.4576L12.6743 22L21.3486 24.4576V34.6944L12.6743 36.9925L4 34.6944V24.4576ZM5.14489 25.0889L12.6743 22.9826L20.2037 25.0889V33.862L12.6743 35.8317L5.14489 33.862V25.0889Z" fill="white"/>
<path d="M4.71273 24.9002L12.6293 26.9701L20.6457 24.8198L20.9107 25.8117L12.6367 28.0313L4.45557 25.8922L4.71273 24.9002Z" fill="white"/>
<path d="M13.1508 27.7577V36.2563H12.1226V27.7577H13.1508Z" fill="white"/>
<path d="M8.49306 23.2122L18.1038 25.767L17.5006 26.6704L8.229 24.2059L8.49306 23.2122Z" fill="white"/>
<path fill-rule="evenodd" clip-rule="evenodd" d="M15.5405 27.115V30.1594L17.8781 29.4364V26.2858L15.5405 27.115Z" fill="white"/>
</svg>
