<svg viewBox="0 0 31 52" fill="none" xmlns="http://www.w3.org/2000/svg">
<rect width="31" height="52" fill="currentColor" fill-opacity="0.5"/>
<path fill-rule="evenodd" clip-rule="evenodd" d="M7 23.9962L15.6743 21.585L24.3486 23.9962V34.0398L15.6743 36.2946L7 34.0398V23.9962ZM8.14489 24.6155L15.6743 22.549L23.2037 24.6155V33.2232L15.6743 35.1556L8.14489 33.2232V24.6155Z" fill="white"/>
<path d="M7.71273 24.4304L15.6293 26.4613L23.6457 24.3516L23.9107 25.3247L15.6367 27.5025L7.45557 25.4037L7.71273 24.4304Z" fill="white"/>
<path d="M16.1508 27.234V35.5723H15.1226V27.234H16.1508Z" fill="white"/>
<path d="M11.4931 22.7742L21.1038 25.2808L20.5006 26.1671L11.229 23.7492L11.4931 22.7742Z" fill="white"/>
<path fill-rule="evenodd" clip-rule="evenodd" d="M18.5405 26.6034V29.5904L20.8781 28.881V25.7898L18.5405 26.6034Z" fill="white"/>
</svg>
