<svg viewBox="0 0 53 38" fill="none" xmlns="http://www.w3.org/2000/svg">
<path d="M0 26.5V0H53V37.5H4.5V26.5H0Z" fill="currentColor" fill-opacity="0.5"/>
<path fill-rule="evenodd" clip-rule="evenodd" d="M20 15.4576L28.6743 13L37.3486 15.4576V25.6944L28.6743 27.9925L20 25.6944V15.4576ZM21.1449 16.0889L28.6743 13.9826L36.2037 16.0889V24.862L28.6743 26.8317L21.1449 24.862V16.0889Z" fill="white"/>
<path d="M20.7127 15.9002L28.6293 17.9701L36.6457 15.8198L36.9107 16.8117L28.6367 19.0313L20.4556 16.8922L20.7127 15.9002Z" fill="white"/>
<path d="M29.1508 18.7577V27.2563H28.1226V18.7577H29.1508Z" fill="white"/>
<path d="M24.4931 14.2122L34.1038 16.767L33.5006 17.6704L24.229 15.2059L24.4931 14.2122Z" fill="white"/>
<path fill-rule="evenodd" clip-rule="evenodd" d="M31.5405 18.115V21.1594L33.8781 20.4364V17.2858L31.5405 18.115Z" fill="white"/>
</svg>
