<svg viewBox="0 0 26 88" fill="none" xmlns="http://www.w3.org/2000/svg">
<rect width="26" height="88" fill="currentColor" fill-opacity="0.5"/>
<path fill-rule="evenodd" clip-rule="evenodd" d="M4 38.4576L12.6743 36L21.3486 38.4576V48.6944L12.6743 50.9925L4 48.6944V38.4576ZM5.14489 39.0889L12.6743 36.9826L20.2037 39.0889V47.862L12.6743 49.8317L5.14489 47.862V39.0889Z" fill="white"/>
<path d="M4.71273 38.9002L12.6293 40.9701L20.6457 38.8198L20.9107 39.8117L12.6367 42.0313L4.45557 39.8922L4.71273 38.9002Z" fill="white"/>
<path d="M13.1508 41.7577V50.2563H12.1226V41.7577H13.1508Z" fill="white"/>
<path d="M8.49306 37.2122L18.1038 39.767L17.5006 40.6704L8.229 38.2059L8.49306 37.2122Z" fill="white"/>
<path fill-rule="evenodd" clip-rule="evenodd" d="M15.5405 41.115V44.1594L17.8781 43.4364V40.2858L15.5405 41.115Z" fill="white"/>
</svg>
