<svg viewBox="0 0 78 130" fill="none" xmlns="http://www.w3.org/2000/svg">
<path d="M0 126V0C1 5.33333 3.7 17.9 6.5 25.5C9.3 33.1 15.6667 47 18.5 53C20.8333 58.1667 28.5 72.2 40.5 87C52.5 101.8 70.5 116.167 78 121.5V129.5L10 129V126H0Z" fill="currentColor" fill-opacity="0.5"/>
<path fill-rule="evenodd" clip-rule="evenodd" d="M19 98.4576L27.6743 96L36.3486 98.4576V108.694L27.6743 110.992L19 108.694V98.4576ZM20.1449 99.0889L27.6743 96.9826L35.2037 99.0889V107.862L27.6743 109.832L20.1449 107.862V99.0889Z" fill="white"/>
<path d="M19.7126 98.9002L27.6292 100.97L35.6456 98.8198L35.9106 99.8117L27.6365 102.031L19.4554 99.8922L19.7126 98.9002Z" fill="white"/>
<path d="M28.1506 101.758V110.256H27.1224V101.758H28.1506Z" fill="white"/>
<path d="M23.4933 97.2122L33.104 99.767L32.5008 100.67L23.2292 98.2059L23.4933 97.2122Z" fill="white"/>
<path fill-rule="evenodd" clip-rule="evenodd" d="M30.5406 101.115V104.159L32.8782 103.436V100.286L30.5406 101.115Z" fill="white"/>
</svg>
