<svg viewBox="0 0 26 91" fill="none" xmlns="http://www.w3.org/2000/svg">
<path d="M21 11V0H0L0.5 91H21.5V79.7399H26V11H21Z" fill="currentColor" fill-opacity="0.5"/>
<path fill-rule="evenodd" clip-rule="evenodd" d="M5 40.4576L13.6743 38L22.3486 40.4576V50.6944L13.6743 52.9925L5 50.6944V40.4576ZM6.14489 41.0889L13.6743 38.9826L21.2037 41.0889V49.862L13.6743 51.8317L6.14489 49.862V41.0889Z" fill="white"/>
<path d="M5.71273 40.9002L13.6293 42.9701L21.6457 40.8198L21.9107 41.8117L13.6367 44.0313L5.45557 41.8922L5.71273 40.9002Z" fill="white"/>
<path d="M14.1508 43.7577V52.2563H13.1226V43.7577H14.1508Z" fill="white"/>
<path d="M9.49306 39.2122L19.1038 41.767L18.5006 42.6704L9.229 40.2059L9.49306 39.2122Z" fill="white"/>
<path fill-rule="evenodd" clip-rule="evenodd" d="M16.5405 43.115V46.1594L18.8781 45.4364V42.2858L16.5405 43.115Z" fill="white"/>
</svg>
