<svg viewBox="0 0 33 47" fill="none" xmlns="http://www.w3.org/2000/svg">
<path d="M0.5 46.5V0H32.5V46.5H15V34.5H14.5H8.5V46.5H0.5Z" fill="currentColor" fill-opacity="0.5"/>
<path fill-rule="evenodd" clip-rule="evenodd" d="M8 19.4576L16.6743 17L25.3486 19.4576V29.6944L16.6743 31.9925L8 29.6944V19.4576ZM9.14489 20.0889L16.6743 17.9826L24.2037 20.0889V28.862L16.6743 30.8317L9.14489 28.862V20.0889Z" fill="white"/>
<path d="M8.71273 19.9002L16.6293 21.9701L24.6457 19.8198L24.9107 20.8117L16.6367 23.0313L8.45557 20.8922L8.71273 19.9002Z" fill="white"/>
<path d="M17.1508 22.7577V31.2563H16.1226V22.7577H17.1508Z" fill="white"/>
<path d="M12.4931 18.2122L22.1038 20.767L21.5006 21.6704L12.229 19.2059L12.4931 18.2122Z" fill="white"/>
<path fill-rule="evenodd" clip-rule="evenodd" d="M19.5405 22.115V25.1594L21.8781 24.4364V21.2858L19.5405 22.115Z" fill="white"/>
</svg>
