<svg viewBox="0 0 44 29" fill="none" xmlns="http://www.w3.org/2000/svg">
<rect width="44" height="29" fill="currentColor" fill-opacity="0.5"/>
<path fill-rule="evenodd" clip-rule="evenodd" d="M13 8.45882L21.6743 6L30.3486 8.45882V18.7007L21.6743 21L13 18.7007V8.45882ZM14.1449 9.09041L21.6743 6.98305L29.2037 9.09041V17.868L21.6743 19.8386L14.1449 17.868V9.09041Z" fill="white"/>
<path d="M13.7122 8.90166L21.6288 10.9726L29.6452 8.82129L29.9102 9.81362L21.6362 12.0344L13.4551 9.89423L13.7122 8.90166Z" fill="white"/>
<path d="M22.1508 11.7606V20.2635H21.1226V11.7606H22.1508Z" fill="white"/>
<path d="M17.4936 7.21277L27.1043 9.76885L26.5011 10.6727L17.2295 8.207L17.4936 7.21277Z" fill="white"/>
<path fill-rule="evenodd" clip-rule="evenodd" d="M24.5405 11.1176V14.1636L26.8781 13.4402V10.288L24.5405 11.1176Z" fill="white"/>
</svg>
