<svg viewBox="0 0 32 60" fill="none" xmlns="http://www.w3.org/2000/svg">
<rect width="32" height="60" fill="currentColor" fill-opacity="0.5"/>
<path fill-rule="evenodd" clip-rule="evenodd" d="M7 25.4588L15.6743 23L24.3486 25.4588V35.7007L15.6743 38L7 35.7007V25.4588ZM8.14489 26.0904L15.6743 23.9831L23.2037 26.0904V34.868L15.6743 36.8386L8.14489 34.868V26.0904Z" fill="white"/>
<path d="M7.71225 25.9017L15.6288 27.9726L23.6452 25.8213L23.9102 26.8136L15.6362 29.0344L7.45508 26.8942L7.71225 25.9017Z" fill="white"/>
<path d="M16.1508 28.7606V37.2635H15.1226V28.7606H16.1508Z" fill="white"/>
<path d="M11.4936 24.2128L21.1043 26.7688L20.5011 27.6727L11.2295 25.207L11.4936 24.2128Z" fill="white"/>
<path fill-rule="evenodd" clip-rule="evenodd" d="M18.5405 28.1176V31.1636L20.8781 30.4402V27.288L18.5405 28.1176Z" fill="white"/>
</svg>
