<svg viewBox="0 0 44 49" fill="none" xmlns="http://www.w3.org/2000/svg">
<rect width="44" height="49" fill="currentColor" fill-opacity="0.5"/>
<path fill-rule="evenodd" clip-rule="evenodd" d="M12 19.4588L20.6743 17L29.3486 19.4588V29.7007L20.6743 32L12 29.7007V19.4588ZM13.1449 20.0904L20.6743 17.9831L28.2037 20.0904V28.868L20.6743 30.8386L13.1449 28.868V20.0904Z" fill="white"/>
<path d="M12.7122 19.9017L20.6288 21.9726L28.6452 19.8213L28.9102 20.8136L20.6362 23.0344L12.4551 20.8942L12.7122 19.9017Z" fill="white"/>
<path d="M21.1508 22.7606V31.2635H20.1226V22.7606H21.1508Z" fill="white"/>
<path d="M16.4936 18.2128L26.1043 20.7688L25.5011 21.6727L16.2295 19.207L16.4936 18.2128Z" fill="white"/>
<path fill-rule="evenodd" clip-rule="evenodd" d="M23.5405 22.1176V25.1636L25.8781 24.4402V21.288L23.5405 22.1176Z" fill="white"/>
</svg>
