<svg viewBox="0 0 59 35" fill="none" xmlns="http://www.w3.org/2000/svg">
<path d="M0 31V0H59V35H10.5V31H0Z" fill="currentColor" fill-opacity="0.5"/>
<path fill-rule="evenodd" clip-rule="evenodd" d="M21 12.4576L29.6743 10L38.3486 12.4576V22.6944L29.6743 24.9925L21 22.6944V12.4576ZM22.1449 13.0889L29.6743 10.9826L37.2037 13.0889V21.862L29.6743 23.8317L22.1449 21.862V13.0889Z" fill="white"/>
<path d="M21.7127 12.9002L29.6293 14.9701L37.6457 12.8198L37.9107 13.8117L29.6367 16.0313L21.4556 13.8922L21.7127 12.9002Z" fill="white"/>
<path d="M30.1508 15.7577V24.2563H29.1226V15.7577H30.1508Z" fill="white"/>
<path d="M25.4931 11.2122L35.1038 13.767L34.5006 14.6704L25.229 12.2059L25.4931 11.2122Z" fill="white"/>
<path fill-rule="evenodd" clip-rule="evenodd" d="M32.5405 15.115V18.1594L34.8781 17.4364V14.2858L32.5405 15.115Z" fill="white"/>
</svg>
