<svg viewBox="0 0 24 46" fill="none" xmlns="http://www.w3.org/2000/svg">
<rect width="24" height="46" fill="currentColor" fill-opacity="0.5"/>
<path fill-rule="evenodd" clip-rule="evenodd" d="M4 19.4576L12.6743 17L21.3486 19.4576V29.6944L12.6743 31.9925L4 29.6944V19.4576ZM5.14489 20.0889L12.6743 17.9826L20.2037 20.0889V28.862L12.6743 30.8317L5.14489 28.862V20.0889Z" fill="white"/>
<path d="M4.71273 19.9002L12.6293 21.9701L20.6457 19.8198L20.9107 20.8117L12.6367 23.0313L4.45557 20.8922L4.71273 19.9002Z" fill="white"/>
<path d="M13.1508 22.7577V31.2563H12.1226V22.7577H13.1508Z" fill="white"/>
<path d="M8.49306 18.2122L18.1038 20.767L17.5006 21.6704L8.229 19.2059L8.49306 18.2122Z" fill="white"/>
<path fill-rule="evenodd" clip-rule="evenodd" d="M15.5405 22.115V25.1594L17.8781 24.4364V21.2858L15.5405 22.115Z" fill="white"/>
</svg>
