<svg viewBox="0 0 29 56" fill="none" xmlns="http://www.w3.org/2000/svg">
<path d="M28.5 0.5H0.5V56H1H28.5V26.5H24.5V13.5H28.5V0.5Z" fill="currentColor" fill-opacity="0.5"/>
<path fill-rule="evenodd" clip-rule="evenodd" d="M6 27.4576L14.6743 25L23.3486 27.4576V37.6944L14.6743 39.9925L6 37.6944V27.4576ZM7.14489 28.0889L14.6743 25.9826L22.2037 28.0889V36.862L14.6743 38.8317L7.14489 36.862V28.0889Z" fill="white"/>
<path d="M6.71273 27.9002L14.6293 29.9701L22.6457 27.8198L22.9107 28.8117L14.6367 31.0313L6.45557 28.8922L6.71273 27.9002Z" fill="white"/>
<path d="M15.1508 30.7577V39.2563H14.1226V30.7577H15.1508Z" fill="white"/>
<path d="M10.4931 26.2122L20.1038 28.767L19.5006 29.6704L10.229 27.2059L10.4931 26.2122Z" fill="white"/>
<path fill-rule="evenodd" clip-rule="evenodd" d="M17.5405 30.115V33.1594L19.8781 32.4364V29.2858L17.5405 30.115Z" fill="white"/>
</svg>
