<svg viewBox="0 0 44 91" fill="none" xmlns="http://www.w3.org/2000/svg">
<path d="M43.4925 90.882V0.5C27.0925 1.3 14.6591 11.5 10.4925 16.5C4.15914 23.8333 -5.90752 43.7 4.49248 64.5C14.8925 85.3 34.8258 90.7546 43.4925 90.882Z" fill="currentColor" fill-opacity="0.5"/>
<path fill-rule="evenodd" clip-rule="evenodd" d="M14.4924 40.4576L23.1667 38L31.841 40.4576V50.6944L23.1667 52.9925L14.4924 50.6944V40.4576ZM15.6373 41.0889L23.1667 38.9826L30.6961 41.0889V49.862L23.1667 51.8317L15.6373 49.862V41.0889Z" fill="white"/>
<path d="M15.205 40.9002L23.1216 42.9701L31.138 40.8198L31.403 41.8117L23.129 44.0313L14.9479 41.8922L15.205 40.9002Z" fill="white"/>
<path d="M23.6431 43.7577V52.2563H22.6149V43.7577H23.6431Z" fill="white"/>
<path d="M18.9857 39.2122L28.5965 41.767L27.9933 42.6704L18.7217 40.2059L18.9857 39.2122Z" fill="white"/>
<path fill-rule="evenodd" clip-rule="evenodd" d="M26.0331 43.115V46.1594L28.3706 45.4364V42.2858L26.0331 43.115Z" fill="white"/>
</svg>
