<svg viewBox="0 0 49 42" fill="none" xmlns="http://www.w3.org/2000/svg">
<rect width="49" height="42" fill="currentColor" fill-opacity="0.5"/>
<path fill-rule="evenodd" clip-rule="evenodd" d="M16 17.4576L24.6743 15L33.3486 17.4576V27.6944L24.6743 29.9925L16 27.6944V17.4576ZM17.1449 18.0889L24.6743 15.9826L32.2037 18.0889V26.862L24.6743 28.8317L17.1449 26.862V18.0889Z" fill="white"/>
<path d="M16.7127 17.9002L24.6293 19.9701L32.6457 17.8198L32.9107 18.8117L24.6367 21.0313L16.4556 18.8922L16.7127 17.9002Z" fill="white"/>
<path d="M25.1508 20.7577V29.2563H24.1226V20.7577H25.1508Z" fill="white"/>
<path d="M20.4931 16.2122L30.1038 18.767L29.5006 19.6704L20.229 17.2059L20.4931 16.2122Z" fill="white"/>
<path fill-rule="evenodd" clip-rule="evenodd" d="M27.5405 20.115V23.1594L29.8781 22.4364V19.2858L27.5405 20.115Z" fill="white"/>
</svg>
