<svg viewBox="0 0 55 37" fill="none" xmlns="http://www.w3.org/2000/svg">
<rect width="55" height="37" fill="currentColor" fill-opacity="0.5"/>
<path fill-rule="evenodd" clip-rule="evenodd" d="M18 10.4576L26.6743 8L35.3486 10.4576V20.6944L26.6743 22.9925L18 20.6944V10.4576ZM19.1449 11.0889L26.6743 8.98256L34.2037 11.0889V19.862L26.6743 21.8317L19.1449 19.862V11.0889Z" fill="white"/>
<path d="M18.7127 10.9002L26.6293 12.9701L34.6457 10.8198L34.9107 11.8117L26.6367 14.0313L18.4556 11.8922L18.7127 10.9002Z" fill="white"/>
<path d="M27.1508 13.7577V22.2563H26.1226V13.7577H27.1508Z" fill="white"/>
<path d="M22.4931 9.21216L32.1038 11.767L31.5006 12.6704L22.229 10.2059L22.4931 9.21216Z" fill="white"/>
<path fill-rule="evenodd" clip-rule="evenodd" d="M29.5405 13.115V16.1594L31.8781 15.4364V12.2858L29.5405 13.115Z" fill="white"/>
</svg>
