<svg viewBox="0 0 30 54" fill="none" xmlns="http://www.w3.org/2000/svg">
<path d="M0.5 54V0H29.5V29H25V42H29.5V54H0.5Z" fill="currentColor" fill-opacity="0.5"/>
<path fill-rule="evenodd" clip-rule="evenodd" d="M6 22.4588L14.6743 20L23.3486 22.4588V32.7007L14.6743 35L6 32.7007V22.4588ZM7.14489 23.0904L14.6743 20.9831L22.2037 23.0904V31.868L14.6743 33.8386L7.14489 31.868V23.0904Z" fill="white"/>
<path d="M6.71225 22.9017L14.6288 24.9726L22.6452 22.8213L22.9102 23.8136L14.6362 26.0344L6.45508 23.8942L6.71225 22.9017Z" fill="white"/>
<path d="M15.1508 25.7606V34.2635H14.1226V25.7606H15.1508Z" fill="white"/>
<path d="M10.4936 21.2128L20.1043 23.7688L19.5011 24.6727L10.2295 22.207L10.4936 21.2128Z" fill="white"/>
<path fill-rule="evenodd" clip-rule="evenodd" d="M17.5405 25.1176V28.1636L19.8781 27.4402V24.288L17.5405 25.1176Z" fill="white"/>
</svg>
