<svg viewBox="0 0 27 53" fill="none" xmlns="http://www.w3.org/2000/svg">
<rect width="27" height="53" fill="currentColor" fill-opacity="0.5"/>
<path fill-rule="evenodd" clip-rule="evenodd" d="M4 21.4576L12.6743 19L21.3486 21.4576V31.6944L12.6743 33.9925L4 31.6944V21.4576ZM5.14489 22.0889L12.6743 19.9826L20.2037 22.0889V30.862L12.6743 32.8317L5.14489 30.862V22.0889Z" fill="white"/>
<path d="M4.71273 21.9002L12.6293 23.9701L20.6457 21.8198L20.9107 22.8117L12.6367 25.0313L4.45557 22.8922L4.71273 21.9002Z" fill="white"/>
<path d="M13.1508 24.7577V33.2563H12.1226V24.7577H13.1508Z" fill="white"/>
<path d="M8.49306 20.2122L18.1038 22.767L17.5006 23.6704L8.229 21.2059L8.49306 20.2122Z" fill="white"/>
<path fill-rule="evenodd" clip-rule="evenodd" d="M15.5405 24.115V27.1594L17.8781 26.4364V23.2858L15.5405 24.115Z" fill="white"/>
</svg>
