<svg viewBox="0 0 77 29" fill="none" xmlns="http://www.w3.org/2000/svg">
<rect width="77" height="29" fill="currentColor" fill-opacity="0.5"/>
<path fill-rule="evenodd" clip-rule="evenodd" d="M28 10.4588L36.6743 8L45.3486 10.4588V20.7007L36.6743 23L28 20.7007V10.4588ZM29.1449 11.0904L36.6743 8.98305L44.2037 11.0904V19.868L36.6743 21.8386L29.1449 19.868V11.0904Z" fill="white"/>
<path d="M28.7122 10.9017L36.6288 12.9726L44.6452 10.8213L44.9102 11.8136L36.6362 14.0344L28.4551 11.8942L28.7122 10.9017Z" fill="white"/>
<path d="M37.1508 13.7606V22.2635H36.1226V13.7606H37.1508Z" fill="white"/>
<path d="M32.4936 9.21277L42.1043 11.7688L41.5011 12.6727L32.2295 10.207L32.4936 9.21277Z" fill="white"/>
<path fill-rule="evenodd" clip-rule="evenodd" d="M39.5405 13.1176V16.1636L41.8781 15.4402V12.288L39.5405 13.1176Z" fill="white"/>
</svg>
