<svg viewBox="0 0 43 40" fill="none" xmlns="http://www.w3.org/2000/svg">
<rect width="43" height="40" fill="currentColor" fill-opacity="0.5"/>
<path fill-rule="evenodd" clip-rule="evenodd" d="M13 14.4576L21.6743 12L30.3486 14.4576V24.6944L21.6743 26.9925L13 24.6944V14.4576ZM14.1449 15.0889L21.6743 12.9826L29.2037 15.0889V23.862L21.6743 25.8317L14.1449 23.862V15.0889Z" fill="white"/>
<path d="M13.7127 14.9002L21.6293 16.9701L29.6457 14.8198L29.9107 15.8117L21.6367 18.0313L13.4556 15.8922L13.7127 14.9002Z" fill="white"/>
<path d="M22.1508 17.7577V26.2563H21.1226V17.7577H22.1508Z" fill="white"/>
<path d="M17.4931 13.2122L27.1038 15.767L26.5006 16.6704L17.229 14.2059L17.4931 13.2122Z" fill="white"/>
<path fill-rule="evenodd" clip-rule="evenodd" d="M24.5405 17.115V20.1594L26.8781 19.4364V16.2858L24.5405 17.115Z" fill="white"/>
</svg>
