<svg viewBox="0 0 22 52" fill="none" xmlns="http://www.w3.org/2000/svg">
<rect width="22" height="52" fill="currentColor" fill-opacity="0.5"/>
<path fill-rule="evenodd" clip-rule="evenodd" d="M2 22.4576L10.6743 20L19.3486 22.4576V32.6944L10.6743 34.9925L2 32.6944V22.4576ZM3.14489 23.0889L10.6743 20.9826L18.2037 23.0889V31.862L10.6743 33.8317L3.14489 31.862V23.0889Z" fill="white"/>
<path d="M2.71273 22.9002L10.6293 24.9701L18.6457 22.8198L18.9107 23.8117L10.6367 26.0313L2.45557 23.8922L2.71273 22.9002Z" fill="white"/>
<path d="M11.1508 25.7577V34.2563H10.1226V25.7577H11.1508Z" fill="white"/>
<path d="M6.49306 21.2122L16.1038 23.767L15.5006 24.6704L6.229 22.2059L6.49306 21.2122Z" fill="white"/>
<path fill-rule="evenodd" clip-rule="evenodd" d="M13.5405 25.115V28.1594L15.8781 27.4364V24.2858L13.5405 25.115Z" fill="white"/>
</svg>
