<svg viewBox="0 0 43 34" fill="none" xmlns="http://www.w3.org/2000/svg">
<rect width="43" height="34" fill="currentColor" fill-opacity="0.5"/>
<path fill-rule="evenodd" clip-rule="evenodd" d="M13 12.4576L21.6743 10L30.3486 12.4576V22.6944L21.6743 24.9925L13 22.6944V12.4576ZM14.1449 13.0889L21.6743 10.9826L29.2037 13.0889V21.862L21.6743 23.8317L14.1449 21.862V13.0889Z" fill="white"/>
<path d="M13.7127 12.9002L21.6293 14.9701L29.6457 12.8198L29.9107 13.8117L21.6367 16.0313L13.4556 13.8922L13.7127 12.9002Z" fill="white"/>
<path d="M22.1508 15.7577V24.2563H21.1226V15.7577H22.1508Z" fill="white"/>
<path d="M17.4931 11.2122L27.1038 13.767L26.5006 14.6704L17.229 12.2059L17.4931 11.2122Z" fill="white"/>
<path fill-rule="evenodd" clip-rule="evenodd" d="M24.5405 15.115V18.1594L26.8781 17.4364V14.2858L24.5405 15.115Z" fill="white"/>
</svg>
