<svg viewBox="0 0 32 55" fill="none" xmlns="http://www.w3.org/2000/svg">
<rect width="32" height="55" fill="currentColor" fill-opacity="0.5"/>
<path fill-rule="evenodd" clip-rule="evenodd" d="M6 24.4588L14.6743 22L23.3486 24.4588V34.7007L14.6743 37L6 34.7007V24.4588ZM7.14489 25.0904L14.6743 22.9831L22.2037 25.0904V33.868L14.6743 35.8386L7.14489 33.868V25.0904Z" fill="white"/>
<path d="M6.71225 24.9017L14.6288 26.9726L22.6452 24.8213L22.9102 25.8136L14.6362 28.0344L6.45508 25.8942L6.71225 24.9017Z" fill="white"/>
<path d="M15.1508 27.7606V36.2635H14.1226V27.7606H15.1508Z" fill="white"/>
<path d="M10.4936 23.2128L20.1043 25.7688L19.5011 26.6727L10.2295 24.207L10.4936 23.2128Z" fill="white"/>
<path fill-rule="evenodd" clip-rule="evenodd" d="M17.5405 27.1176V30.1636L19.8781 29.4402V26.288L17.5405 27.1176Z" fill="white"/>
</svg>
