<svg viewBox="0 0 55 37" fill="none" xmlns="http://www.w3.org/2000/svg">
<rect width="55" height="37" fill="currentColor" fill-opacity="0.5"/>
<path fill-rule="evenodd" clip-rule="evenodd" d="M19 13.4576L27.6743 11L36.3486 13.4576V23.6944L27.6743 25.9925L19 23.6944V13.4576ZM20.1449 14.0889L27.6743 11.9826L35.2037 14.0889V22.862L27.6743 24.8317L20.1449 22.862V14.0889Z" fill="white"/>
<path d="M19.7127 13.9002L27.6293 15.9701L35.6457 13.8198L35.9107 14.8117L27.6367 17.0313L19.4556 14.8922L19.7127 13.9002Z" fill="white"/>
<path d="M28.1508 16.7577V25.2563H27.1226V16.7577H28.1508Z" fill="white"/>
<path d="M23.4931 12.2122L33.1038 14.767L32.5006 15.6704L23.229 13.2059L23.4931 12.2122Z" fill="white"/>
<path fill-rule="evenodd" clip-rule="evenodd" d="M30.5405 16.115V19.1594L32.8781 18.4364V15.2858L30.5405 16.115Z" fill="white"/>
</svg>
