<svg viewBox="0 0 27 88" fill="none" xmlns="http://www.w3.org/2000/svg">
<path d="M0.5 80.5V11.5H5V0H26.5V88H4.5V80.5H0.5Z" fill="currentColor" fill-opacity="0.5"/>
<path fill-rule="evenodd" clip-rule="evenodd" d="M5 38.4576L13.6743 36L22.3486 38.4576V48.6944L13.6743 50.9925L5 48.6944V38.4576ZM6.14489 39.0889L13.6743 36.9826L21.2037 39.0889V47.862L13.6743 49.8317L6.14489 47.862V39.0889Z" fill="white"/>
<path d="M5.71273 38.9002L13.6293 40.9701L21.6457 38.8198L21.9107 39.8117L13.6367 42.0313L5.45557 39.8922L5.71273 38.9002Z" fill="white"/>
<path d="M14.1508 41.7577V50.2563H13.1226V41.7577H14.1508Z" fill="white"/>
<path d="M9.49306 37.2122L19.1038 39.767L18.5006 40.6704L9.229 38.2059L9.49306 37.2122Z" fill="white"/>
<path fill-rule="evenodd" clip-rule="evenodd" d="M16.5405 41.115V44.1594L18.8781 43.4364V40.2858L16.5405 41.115Z" fill="white"/>
</svg>
