<svg viewBox="0 0 69 36" fill="none" xmlns="http://www.w3.org/2000/svg">
<path d="M0.5 36V0.5H68.5V29.5H40.5V36H0.5Z" fill="currentColor" fill-opacity="0.5"/>
<path fill-rule="evenodd" clip-rule="evenodd" d="M26 13.4576L34.6743 11L43.3486 13.4576V23.6944L34.6743 25.9925L26 23.6944V13.4576ZM27.1449 14.0889L34.6743 11.9826L42.2037 14.0889V22.862L34.6743 24.8317L27.1449 22.862V14.0889Z" fill="white"/>
<path d="M26.7127 13.9002L34.6293 15.9701L42.6457 13.8198L42.9107 14.8117L34.6367 17.0313L26.4556 14.8922L26.7127 13.9002Z" fill="white"/>
<path d="M35.1508 16.7577V25.2563H34.1226V16.7577H35.1508Z" fill="white"/>
<path d="M30.4931 12.2122L40.1038 14.767L39.5006 15.6704L30.229 13.2059L30.4931 12.2122Z" fill="white"/>
<path fill-rule="evenodd" clip-rule="evenodd" d="M37.5405 16.115V19.1594L39.8781 18.4364V15.2858L37.5405 16.115Z" fill="white"/>
</svg>
