<svg viewBox="0 0 32 37" fill="none" xmlns="http://www.w3.org/2000/svg">
<rect width="32" height="37" fill="currentColor" fill-opacity="0.5"/>
<path fill-rule="evenodd" clip-rule="evenodd" d="M7 12.4652L15.6743 10.0076L24.3486 12.4652V22.7019L15.6743 25L7 22.7019V12.4652ZM8.14489 13.0964L15.6743 10.9901L23.2037 13.0964V21.8696L15.6743 23.8392L8.14489 21.8696V13.0964Z" fill="white"/>
<path d="M7.71273 12.9077L15.6293 14.9777L23.6457 12.8274L23.9107 13.8192L15.6367 16.0389L7.45557 13.8998L7.71273 12.9077Z" fill="white"/>
<path d="M16.1508 15.7653V24.2639H15.1226V15.7653H16.1508Z" fill="white"/>
<path d="M11.4931 11.2197L21.1038 13.7745L20.5006 14.6779L11.229 12.2135L11.4931 11.2197Z" fill="white"/>
<path fill-rule="evenodd" clip-rule="evenodd" d="M18.5405 15.1226V18.167L20.8781 17.444V14.2933L18.5405 15.1226Z" fill="white"/>
</svg>
