<svg viewBox="0 0 33 53" fill="none" xmlns="http://www.w3.org/2000/svg">
<path d="M0.5 52.5V0H33V41H28V52.5H0.5Z" fill="currentColor" fill-opacity="0.5"/>
<path fill-rule="evenodd" clip-rule="evenodd" d="M8 21.4576L16.6743 19L25.3486 21.4576V31.6944L16.6743 33.9925L8 31.6944V21.4576ZM9.14489 22.0889L16.6743 19.9826L24.2037 22.0889V30.862L16.6743 32.8317L9.14489 30.862V22.0889Z" fill="white"/>
<path d="M8.71273 21.9002L16.6293 23.9701L24.6457 21.8198L24.9107 22.8117L16.6367 25.0313L8.45557 22.8922L8.71273 21.9002Z" fill="white"/>
<path d="M17.1508 24.7577V33.2563H16.1226V24.7577H17.1508Z" fill="white"/>
<path d="M12.4931 20.2122L22.1038 22.767L21.5006 23.6704L12.229 21.2059L12.4931 20.2122Z" fill="white"/>
<path fill-rule="evenodd" clip-rule="evenodd" d="M19.5405 24.115V27.1594L21.8781 26.4364V23.2858L19.5405 24.115Z" fill="white"/>
</svg>
