<svg viewBox="0 0 53 33" fill="none" xmlns="http://www.w3.org/2000/svg">
<rect width="53" height="33" fill="currentColor" fill-opacity="0.5"/>
<path fill-rule="evenodd" clip-rule="evenodd" d="M20 13.4576L28.6743 11L37.3486 13.4576V23.6944L28.6743 25.9925L20 23.6944V13.4576ZM21.1449 14.0889L28.6743 11.9826L36.2037 14.0889V22.862L28.6743 24.8317L21.1449 22.862V14.0889Z" fill="white"/>
<path d="M20.7127 13.9002L28.6293 15.9701L36.6457 13.8198L36.9107 14.8117L28.6367 17.0313L20.4556 14.8922L20.7127 13.9002Z" fill="white"/>
<path d="M29.1508 16.7577V25.2563H28.1226V16.7577H29.1508Z" fill="white"/>
<path d="M24.4931 12.2122L34.1038 14.767L33.5006 15.6704L24.229 13.2059L24.4931 12.2122Z" fill="white"/>
<path fill-rule="evenodd" clip-rule="evenodd" d="M31.5405 16.115V19.1594L33.8781 18.4364V15.2858L31.5405 16.115Z" fill="white"/>
</svg>
