<svg viewBox="0 0 28 70" fill="none" xmlns="http://www.w3.org/2000/svg">
<path d="M27.5 0H0V69.5H24V59H28L27.5 0Z" fill="currentColor" fill-opacity="0.5"/>
<path fill-rule="evenodd" clip-rule="evenodd" d="M5 32.4576L13.6743 30L22.3486 32.4576V42.6944L13.6743 44.9925L5 42.6944V32.4576ZM6.14489 33.0889L13.6743 30.9826L21.2037 33.0889V41.862L13.6743 43.8317L6.14489 41.862V33.0889Z" fill="white"/>
<path d="M5.71273 32.9002L13.6293 34.9701L21.6457 32.8198L21.9107 33.8117L13.6367 36.0313L5.45557 33.8922L5.71273 32.9002Z" fill="white"/>
<path d="M14.1508 35.7577V44.2563H13.1226V35.7577H14.1508Z" fill="white"/>
<path d="M9.49306 31.2122L19.1038 33.767L18.5006 34.6704L9.229 32.2059L9.49306 31.2122Z" fill="white"/>
<path fill-rule="evenodd" clip-rule="evenodd" d="M16.5405 35.115V38.1594L18.8781 37.4364V34.2858L16.5405 35.115Z" fill="white"/>
</svg>
