<svg viewBox="0 0 44 47" fill="none" xmlns="http://www.w3.org/2000/svg">
<rect width="44" height="47" fill="currentColor" fill-opacity="0.5"/>
<path fill-rule="evenodd" clip-rule="evenodd" d="M13 18.4576L21.6743 16L30.3486 18.4576V28.6944L21.6743 30.9925L13 28.6944V18.4576ZM14.1449 19.0889L21.6743 16.9826L29.2037 19.0889V27.862L21.6743 29.8317L14.1449 27.862V19.0889Z" fill="white"/>
<path d="M13.7127 18.9002L21.6293 20.9701L29.6457 18.8198L29.9107 19.8117L21.6367 22.0313L13.4556 19.8922L13.7127 18.9002Z" fill="white"/>
<path d="M22.1508 21.7577V30.2563H21.1226V21.7577H22.1508Z" fill="white"/>
<path d="M17.4931 17.2122L27.1038 19.767L26.5006 20.6704L17.229 18.2059L17.4931 17.2122Z" fill="white"/>
<path fill-rule="evenodd" clip-rule="evenodd" d="M24.5405 21.115V24.1594L26.8781 23.4364V20.2858L24.5405 21.115Z" fill="white"/>
</svg>
