<svg viewBox="0 0 41 32" fill="none" xmlns="http://www.w3.org/2000/svg">
<rect width="41" height="32" fill="currentColor" fill-opacity="0.5"/>
<path fill-rule="evenodd" clip-rule="evenodd" d="M12 11.4576L20.6743 9L29.3486 11.4576V21.6944L20.6743 23.9925L12 21.6944V11.4576ZM13.1449 12.0889L20.6743 9.98256L28.2037 12.0889V20.862L20.6743 22.8317L13.1449 20.862V12.0889Z" fill="white"/>
<path d="M12.7127 11.9002L20.6293 13.9701L28.6457 11.8198L28.9107 12.8117L20.6367 15.0313L12.4556 12.8922L12.7127 11.9002Z" fill="white"/>
<path d="M21.1508 14.7577V23.2563H20.1226V14.7577H21.1508Z" fill="white"/>
<path d="M16.4931 10.2122L26.1038 12.767L25.5006 13.6704L16.229 11.2059L16.4931 10.2122Z" fill="white"/>
<path fill-rule="evenodd" clip-rule="evenodd" d="M23.5405 14.115V17.1594L25.8781 16.4364V13.2858L23.5405 14.115Z" fill="white"/>
</svg>
