<svg viewBox="0 0 23 50" fill="none" xmlns="http://www.w3.org/2000/svg">
<rect width="23" height="50" fill="currentColor" fill-opacity="0.5"/>
<path fill-rule="evenodd" clip-rule="evenodd" d="M2 21.4576L10.6743 19L19.3486 21.4576V31.6944L10.6743 33.9925L2 31.6944V21.4576ZM3.14489 22.0889L10.6743 19.9826L18.2037 22.0889V30.862L10.6743 32.8317L3.14489 30.862V22.0889Z" fill="white"/>
<path d="M2.71273 21.9002L10.6293 23.9701L18.6457 21.8198L18.9107 22.8117L10.6367 25.0313L2.45557 22.8922L2.71273 21.9002Z" fill="white"/>
<path d="M11.1508 24.7577V33.2563H10.1226V24.7577H11.1508Z" fill="white"/>
<path d="M6.49306 20.2122L16.1038 22.767L15.5006 23.6704L6.229 21.2059L6.49306 20.2122Z" fill="white"/>
<path fill-rule="evenodd" clip-rule="evenodd" d="M13.5405 24.115V27.1594L15.8781 26.4364V23.2858L13.5405 24.115Z" fill="white"/>
</svg>
