<svg viewBox="0 0 34 53" fill="none" xmlns="http://www.w3.org/2000/svg">
<rect width="34" height="53" fill="currentColor" fill-opacity="0.5"/>
<path fill-rule="evenodd" clip-rule="evenodd" d="M10 23.4576L18.6743 21L27.3486 23.4576V33.6944L18.6743 35.9925L10 33.6944V23.4576ZM11.1449 24.0889L18.6743 21.9826L26.2037 24.0889V32.862L18.6743 34.8317L11.1449 32.862V24.0889Z" fill="white"/>
<path d="M10.7127 23.9002L18.6293 25.9701L26.6457 23.8198L26.9107 24.8117L18.6367 27.0313L10.4556 24.8922L10.7127 23.9002Z" fill="white"/>
<path d="M19.1508 26.7577V35.2563H18.1226V26.7577H19.1508Z" fill="white"/>
<path d="M14.4931 22.2122L24.1038 24.767L23.5006 25.6704L14.229 23.2059L14.4931 22.2122Z" fill="white"/>
<path fill-rule="evenodd" clip-rule="evenodd" d="M21.5405 26.115V29.1594L23.8781 28.4364V25.2858L21.5405 26.115Z" fill="white"/>
</svg>
