<svg viewBox="0 0 54 36" fill="none" xmlns="http://www.w3.org/2000/svg">
<path d="M0 29.5V0.5H53.5V36H11V29.5H0Z" fill="currentColor" fill-opacity="0.5"/>
<path fill-rule="evenodd" clip-rule="evenodd" d="M18 13.4576L26.6743 11L35.3486 13.4576V23.6944L26.6743 25.9925L18 23.6944V13.4576ZM19.1449 14.0889L26.6743 11.9826L34.2037 14.0889V22.862L26.6743 24.8317L19.1449 22.862V14.0889Z" fill="white"/>
<path d="M18.7127 13.9002L26.6293 15.9701L34.6457 13.8198L34.9107 14.8117L26.6367 17.0313L18.4556 14.8922L18.7127 13.9002Z" fill="white"/>
<path d="M27.1508 16.7577V25.2563H26.1226V16.7577H27.1508Z" fill="white"/>
<path d="M22.4931 12.2122L32.1038 14.767L31.5006 15.6704L22.229 13.2059L22.4931 12.2122Z" fill="white"/>
<path fill-rule="evenodd" clip-rule="evenodd" d="M29.5405 16.115V19.1594L31.8781 18.4364V15.2858L29.5405 16.115Z" fill="white"/>
</svg>
