<svg viewBox="0 0 36 89" fill="none" xmlns="http://www.w3.org/2000/svg">
<path d="M0 89V0H18V0.5H32V10.5H35.5V19.5H27V65.5H35.5V79.5H31.5V89H0Z" fill="currentColor" fill-opacity="0.5"/>
<path fill-rule="evenodd" clip-rule="evenodd" d="M5 41.9576L13.6743 39.5L22.3486 41.9576V52.1944L13.6743 54.4925L5 52.1944V41.9576ZM6.14489 42.5889L13.6743 40.4826L21.2037 42.5889V51.362L13.6743 53.3317L6.14489 51.362V42.5889Z" fill="white"/>
<path d="M5.71261 42.4002L13.6292 44.4701L21.6456 42.3198L21.9106 43.3117L13.6365 45.5313L5.45544 43.3922L5.71261 42.4002Z" fill="white"/>
<path d="M14.1506 45.2577V53.7563H13.1224V45.2577H14.1506Z" fill="white"/>
<path d="M9.49331 40.7122L19.104 43.267L18.5008 44.1704L9.22925 41.7059L9.49331 40.7122Z" fill="white"/>
<path fill-rule="evenodd" clip-rule="evenodd" d="M16.5406 44.615V47.6594L18.8782 46.9364V43.7858L16.5406 44.615Z" fill="white"/>
</svg>
