<svg viewBox="0 0 43 45" fill="none" xmlns="http://www.w3.org/2000/svg">
<rect width="43" height="45" fill="currentColor" fill-opacity="0.5"/>
<path fill-rule="evenodd" clip-rule="evenodd" d="M14 20.4576L22.6743 18L31.3486 20.4576V30.6944L22.6743 32.9925L14 30.6944V20.4576ZM15.1449 21.0889L22.6743 18.9826L30.2037 21.0889V29.862L22.6743 31.8317L15.1449 29.862V21.0889Z" fill="white"/>
<path d="M14.7127 20.9002L22.6293 22.9701L30.6457 20.8198L30.9107 21.8117L22.6367 24.0313L14.4556 21.8922L14.7127 20.9002Z" fill="white"/>
<path d="M23.1508 23.7577V32.2563H22.1226V23.7577H23.1508Z" fill="white"/>
<path d="M18.4931 19.2122L28.1038 21.767L27.5006 22.6704L18.229 20.2059L18.4931 19.2122Z" fill="white"/>
<path fill-rule="evenodd" clip-rule="evenodd" d="M25.5405 23.115V26.1594L27.8781 25.4364V22.2858L25.5405 23.115Z" fill="white"/>
</svg>
