<svg viewBox="0 0 48 40" fill="none" xmlns="http://www.w3.org/2000/svg">
<rect width="48" height="40" fill="currentColor" fill-opacity="0.5"/>
<path fill-rule="evenodd" clip-rule="evenodd" d="M17 15.4576L25.6743 13L34.3486 15.4576V25.6944L25.6743 27.9925L17 25.6944V15.4576ZM18.1449 16.0889L25.6743 13.9826L33.2037 16.0889V24.862L25.6743 26.8317L18.1449 24.862V16.0889Z" fill="white"/>
<path d="M17.7127 15.9002L25.6293 17.9701L33.6457 15.8198L33.9107 16.8117L25.6367 19.0313L17.4556 16.8922L17.7127 15.9002Z" fill="white"/>
<path d="M26.1508 18.7577V27.2563H25.1226V18.7577H26.1508Z" fill="white"/>
<path d="M21.4931 14.2122L31.1038 16.767L30.5006 17.6704L21.229 15.2059L21.4931 14.2122Z" fill="white"/>
<path fill-rule="evenodd" clip-rule="evenodd" d="M28.5405 18.115V21.1594L30.8781 20.4364V17.2858L28.5405 18.115Z" fill="white"/>
</svg>
