<svg viewBox="0 0 38 60" fill="none" xmlns="http://www.w3.org/2000/svg">
<rect width="38" height="60" fill="currentColor" fill-opacity="0.5"/>
<path fill-rule="evenodd" clip-rule="evenodd" d="M9 25.4588L17.6743 23L26.3486 25.4588V35.7007L17.6743 38L9 35.7007V25.4588ZM10.1449 26.0904L17.6743 23.9831L25.2037 26.0904V34.868L17.6743 36.8386L10.1449 34.868V26.0904Z" fill="white"/>
<path d="M9.71225 25.9017L17.6288 27.9726L25.6452 25.8213L25.9102 26.8136L17.6362 29.0344L9.45508 26.8942L9.71225 25.9017Z" fill="white"/>
<path d="M18.1508 28.7606V37.2635H17.1226V28.7606H18.1508Z" fill="white"/>
<path d="M13.4936 24.2128L23.1043 26.7688L22.5011 27.6727L13.2295 25.207L13.4936 24.2128Z" fill="white"/>
<path fill-rule="evenodd" clip-rule="evenodd" d="M20.5405 28.1176V31.1636L22.8781 30.4402V27.288L20.5405 28.1176Z" fill="white"/>
</svg>
