<svg viewBox="0 0 34 40" fill="none" xmlns="http://www.w3.org/2000/svg">
<path d="M0 40V0H34V25.5H27.5V38.5H34V40H0Z" fill="currentColor" fill-opacity="0.5"/>
<path fill-rule="evenodd" clip-rule="evenodd" d="M8 17.4576L16.6743 15L25.3486 17.4576V27.6944L16.6743 29.9925L8 27.6944V17.4576ZM9.14489 18.0889L16.6743 15.9826L24.2037 18.0889V26.862L16.6743 28.8317L9.14489 26.862V18.0889Z" fill="white"/>
<path d="M8.71273 17.9002L16.6293 19.9701L24.6457 17.8198L24.9107 18.8117L16.6367 21.0313L8.45557 18.8922L8.71273 17.9002Z" fill="white"/>
<path d="M17.1508 20.7577V29.2563H16.1226V20.7577H17.1508Z" fill="white"/>
<path d="M12.4931 16.2122L22.1038 18.767L21.5006 19.6704L12.229 17.2059L12.4931 16.2122Z" fill="white"/>
<path fill-rule="evenodd" clip-rule="evenodd" d="M19.5405 20.115V23.1594L21.8781 22.4364V19.2858L19.5405 20.115Z" fill="white"/>
</svg>
