<svg viewBox="0 0 32 92" fill="none" xmlns="http://www.w3.org/2000/svg">
<rect width="32" height="92" fill="currentColor" fill-opacity="0.5"/>
<path fill-rule="evenodd" clip-rule="evenodd" d="M8 40.4576L16.6743 38L25.3486 40.4576V50.6944L16.6743 52.9925L8 50.6944V40.4576ZM9.14489 41.0889L16.6743 38.9826L24.2037 41.0889V49.862L16.6743 51.8317L9.14489 49.862V41.0889Z" fill="white"/>
<path d="M8.71273 40.9002L16.6293 42.9701L24.6457 40.8198L24.9107 41.8117L16.6367 44.0313L8.45557 41.8922L8.71273 40.9002Z" fill="white"/>
<path d="M17.1508 43.7577V52.2563H16.1226V43.7577H17.1508Z" fill="white"/>
<path d="M12.4931 39.2122L22.1038 41.767L21.5006 42.6704L12.229 40.2059L12.4931 39.2122Z" fill="white"/>
<path fill-rule="evenodd" clip-rule="evenodd" d="M19.5405 43.115V46.1594L21.8781 45.4364V42.2858L19.5405 43.115Z" fill="white"/>
</svg>
