<svg viewBox="0 0 53 37" fill="none" xmlns="http://www.w3.org/2000/svg">
<path d="M4 6.5V0H53V37H0.5V6.5H4Z" fill="currentColor" fill-opacity="0.5"/>
<path fill-rule="evenodd" clip-rule="evenodd" d="M20 14.4576L28.6743 12L37.3486 14.4576V24.6944L28.6743 26.9925L20 24.6944V14.4576ZM21.1449 15.0889L28.6743 12.9826L36.2037 15.0889V23.862L28.6743 25.8317L21.1449 23.862V15.0889Z" fill="white"/>
<path d="M20.7127 14.9002L28.6293 16.9701L36.6457 14.8198L36.9107 15.8117L28.6367 18.0313L20.4556 15.8922L20.7127 14.9002Z" fill="white"/>
<path d="M29.1508 17.7577V26.2563H28.1226V17.7577H29.1508Z" fill="white"/>
<path d="M24.4931 13.2122L34.1038 15.767L33.5006 16.6704L24.229 14.2059L24.4931 13.2122Z" fill="white"/>
<path fill-rule="evenodd" clip-rule="evenodd" d="M31.5405 17.115V20.1594L33.8781 19.4364V16.2858L31.5405 17.115Z" fill="white"/>
</svg>
