<svg width="18" height="12" viewBox="0 0 18 12" fill="none" xmlns="http://www.w3.org/2000/svg">
<path d="M12.3934 0.651705H4.62612C4.44124 0.651705 4.27088 0.711965 4.13325 0.812957C3.99078 0.917855 3.88253 1.06646 3.8286 1.23738L3.8219 1.25877L2.58284 3.88233C2.65333 3.87675 2.72364 3.87378 2.79375 3.87378L14.4467 3.87396L13.3097 1.46634L13.1909 1.2372C13.1368 1.0659 13.0285 0.917855 12.8864 0.813143C12.7484 0.711965 12.5777 0.651705 12.3934 0.651705ZM4.62612 0H12.3934C12.7204 0 13.0241 0.107502 13.2707 0.288841C13.4576 0.426286 13.6116 0.606324 13.718 0.814631H13.7212L15.5749 4.74048L14.9165 4.58351C14.8343 4.56398 14.7528 4.5491 14.6727 4.5398H14.6712C14.592 4.53032 14.5094 4.52567 14.4236 4.52567H2.79375C2.67323 4.52567 2.55848 4.53497 2.45005 4.55263C2.33529 4.57142 2.22351 4.59932 2.1162 4.63559L1.3927 4.8796L3.21483 1.02126C3.31322 0.725914 3.50237 0.469994 3.74881 0.288655C3.99506 0.107688 4.2984 0 4.62612 0Z" fill="white"/>
<path d="M1.26059 10.279L1.26357 10.2383L1.29351 9.94421H4.12054C4.13226 10.0694 4.14732 10.1957 4.15346 10.321V11.1505C4.15346 11.3845 4.05786 11.5969 3.90424 11.7507H3.90293C3.74912 11.9044 3.53691 11.9999 3.30405 11.9999H2.10796C1.87398 11.9999 1.66158 11.9044 1.50777 11.7507C1.35414 11.5969 1.25854 11.3845 1.25854 11.1505V10.321L1.26059 10.279ZM1.91025 10.5959V11.1505C1.91025 11.2045 1.93257 11.2539 1.96865 11.2898C2.00455 11.3259 2.05402 11.3482 2.10796 11.3482H3.30405C3.35855 11.3482 3.40802 11.3261 3.44391 11.2904L3.44336 11.2898C3.47925 11.2539 3.50176 11.2045 3.50176 11.1505V10.5959H1.91025Z" fill="white"/>
<path d="M2.79373 3.87378H14.4236C15.1899 3.87378 15.8864 4.18717 16.391 4.69176C16.8956 5.19635 17.2088 5.89269 17.2088 6.65896V9.51371C17.2088 9.81166 17.0872 10.0825 16.8911 10.2783C16.6953 10.4743 16.4245 10.596 16.1265 10.596H1.09081C0.79286 10.596 0.522246 10.4743 0.326214 10.2783C0.130182 10.0825 0.00854492 9.81166 0.00854492 9.51371V6.65896C0.00854492 5.89269 0.32175 5.19635 0.826338 4.69176C1.33093 4.18717 2.02745 3.87378 2.79373 3.87378ZM14.4236 4.52567H2.79373C2.2073 4.52567 1.67389 4.76578 1.28722 5.15245C0.900361 5.53931 0.66025 6.07273 0.66025 6.65896V9.51371C0.66025 9.63181 0.708793 9.7395 0.786908 9.81761C0.86521 9.89573 0.972711 9.94427 1.09081 9.94427H16.1265C16.2446 9.94427 16.3521 9.89573 16.4304 9.81761C16.5085 9.7395 16.5571 9.63181 16.5571 9.51371V6.65896C16.5571 6.07273 16.317 5.53931 15.9301 5.15245C15.5434 4.76578 15.01 4.52567 14.4236 4.52567Z" fill="white"/>
<path d="M13.0523 10.279L13.0832 9.94421H15.9102L15.94 10.2383L15.9452 10.321V11.1505C15.9452 11.3845 15.8496 11.5969 15.6958 11.7507C15.5422 11.9044 15.3296 11.9999 15.0956 11.9999H13.8997C13.6667 11.9999 13.4546 11.9044 13.3008 11.7507H13.2995C13.1459 11.5969 13.0503 11.3845 13.0503 11.1505V10.321L13.0523 10.279ZM13.702 10.5959V11.1505C13.702 11.2045 13.7243 11.2539 13.7604 11.2898L13.7597 11.2904C13.7955 11.3261 13.8452 11.3482 13.8997 11.3482H15.0956C15.1497 11.3482 15.1992 11.3259 15.2351 11.2898C15.271 11.2539 15.2935 11.2045 15.2935 11.1505V10.5959H13.702Z" fill="white"/>
<path d="M2.88462 4.85022C3.283 4.85022 3.64382 5.01184 3.90495 5.27279C4.16626 5.5341 4.3277 5.89473 4.3277 6.29331C4.3277 6.69169 4.16626 7.05233 3.90495 7.31364C3.64382 7.57458 3.283 7.73621 2.88462 7.73621C2.48716 7.73621 2.12671 7.57458 1.86558 7.31364L1.86428 7.31234C1.60315 7.05121 1.44153 6.69077 1.44153 6.29331C1.44153 5.89566 1.60315 5.53522 1.86428 5.27409L1.86558 5.27279C2.12671 5.01184 2.48716 4.85022 2.88462 4.85022ZM3.44426 5.73367C3.30104 5.59046 3.10315 5.50192 2.88462 5.50192C2.66552 5.50192 2.46763 5.59027 2.32442 5.73292C2.18176 5.87613 2.09342 6.07421 2.09342 6.29331C2.09342 6.51222 2.18176 6.71029 2.32442 6.85351C2.46763 6.99616 2.66552 7.0845 2.88462 7.0845C3.10315 7.0845 3.30104 6.99597 3.44426 6.85276C3.58728 6.70974 3.676 6.51166 3.676 6.29331C3.676 6.07477 3.58728 5.87669 3.44426 5.73367Z" fill="white"/>
<path d="M14.3012 4.85022C14.6987 4.85022 15.0591 5.01184 15.3203 5.27279L15.3216 5.27409C15.5827 5.53522 15.7441 5.89566 15.7441 6.29331C15.7441 6.69077 15.5827 7.05121 15.3216 7.31234L15.3203 7.31364C15.0591 7.57458 14.6987 7.73621 14.3012 7.73621C13.9029 7.73621 13.5418 7.57458 13.2809 7.31364C13.0196 7.05233 12.8582 6.69169 12.8582 6.29331C12.8582 5.89473 13.0196 5.5341 13.2809 5.27279C13.5418 5.01184 13.9029 4.85022 14.3012 4.85022ZM14.8614 5.73292C14.7182 5.59027 14.5202 5.50192 14.3012 5.50192C14.0827 5.50192 13.8848 5.59046 13.7416 5.73367C13.5986 5.87669 13.5099 6.07477 13.5099 6.29331C13.5099 6.51166 13.5986 6.70974 13.7416 6.85276C13.8848 6.99597 14.0827 7.0845 14.3012 7.0845C14.5202 7.0845 14.7182 6.99616 14.8614 6.85351C15.0041 6.71029 15.0924 6.51222 15.0924 6.29331C15.0924 6.07421 15.0041 5.87613 14.8614 5.73292Z" fill="white"/>
<path d="M3.9801 8.66003H13.1882V9.31174H3.9801V8.66003Z" fill="white"/>
<path d="M5.6081 6.22485H11.639C11.8646 6.22485 12.0695 6.31692 12.2178 6.46515C12.366 6.61338 12.4581 6.81853 12.4581 7.04395V7.48883C12.4581 7.71444 12.366 7.9194 12.2178 8.06763C12.0695 8.21586 11.8646 8.30793 11.639 8.30793H5.6081C5.3825 8.30793 5.17754 8.21586 5.0293 8.06763C4.88107 7.9194 4.78882 7.71444 4.78882 7.48883V7.04395C4.78882 6.81853 4.88107 6.61338 5.0293 6.46515C5.17754 6.31692 5.3825 6.22485 5.6081 6.22485ZM11.639 6.87656H5.6081C5.56235 6.87656 5.5205 6.89553 5.49 6.92585C5.45968 6.95635 5.44071 6.9982 5.44071 7.04395V7.48883C5.44071 7.5344 5.45968 7.57643 5.49 7.60675C5.5205 7.63725 5.56235 7.65622 5.6081 7.65622H11.639C11.6847 7.65622 11.7266 7.63725 11.7571 7.60675C11.7874 7.57643 11.8064 7.5344 11.8064 7.48883V7.04395C11.8064 6.9982 11.7874 6.95635 11.7571 6.92585C11.7266 6.89553 11.6847 6.87656 11.639 6.87656Z" fill="white"/>
</svg>
