<svg width="17" height="17" viewBox="0 0 17 17" fill="none" xmlns="http://www.w3.org/2000/svg">
<path d="M1.74565 11.0182L0.542232 9.81452C0.180845 9.45313 0 8.97611 0 8.5C0 8.02358 0.180845 7.54687 0.542232 7.18548L1.74565 5.98176C1.79395 5.93376 1.84196 5.85164 1.8806 5.75835C1.91985 5.66445 1.944 5.57297 1.944 5.50686V3.80468C1.944 3.29234 2.15293 2.82679 2.48986 2.48986C2.82709 2.15293 3.29234 1.9437 3.80468 1.9437H5.50686C5.57297 1.9437 5.66445 1.91985 5.75835 1.8806C5.85164 1.84196 5.93376 1.79395 5.98176 1.74565L7.18548 0.542232C7.54687 0.180845 8.02358 0 8.5 0C8.97611 0 9.45313 0.180845 9.81452 0.542232L11.0179 1.74565C11.0662 1.79395 11.1484 1.84196 11.2414 1.8806C11.3352 1.91985 11.4267 1.9437 11.4928 1.9437H13.1953C13.7077 1.9437 14.1729 2.15293 14.5098 2.48986C14.8468 2.82679 15.056 3.29234 15.056 3.80468V5.50686C15.056 5.57297 15.0801 5.66445 15.1191 5.75835C15.158 5.85164 15.206 5.93376 15.2544 5.98176L16.4578 7.18548C16.8192 7.54687 17 8.02358 17 8.5C17 8.97611 16.8192 9.45313 16.4578 9.81452L15.2544 11.0182C15.206 11.0662 15.158 11.1484 15.1191 11.2417C15.0801 11.3352 15.056 11.4267 15.056 11.4928V13.1953C15.056 13.7077 14.8468 14.1729 14.5098 14.5098C14.1729 14.8468 13.7077 15.056 13.1953 15.056H11.4928C11.4267 15.056 11.3352 15.0801 11.2417 15.1191C11.1484 15.158 11.0662 15.206 11.0179 15.2544L9.81452 16.4578C9.45313 16.8192 8.97611 17 8.5 17C8.02358 17 7.54687 16.8192 7.18548 16.4578L5.98176 15.2544C5.93376 15.206 5.85164 15.158 5.75835 15.1191C5.66445 15.0801 5.57297 15.056 5.50686 15.056H3.80468C3.29234 15.056 2.82709 14.8468 2.48986 14.5098C2.15293 14.1729 1.944 13.7077 1.944 13.1953V11.4928C1.944 11.4228 1.91985 11.3295 1.8806 11.2356C1.84256 11.1435 1.79758 11.0659 1.75501 11.0252L1.74686 11.017L1.74565 11.0182ZM1.38185 8.97491L2.58557 10.1783L2.58436 10.1795C2.74346 10.3353 2.88114 10.5536 2.97563 10.7809C3.07194 11.0128 3.13142 11.2691 3.13142 11.4928V13.1953C3.13142 13.3798 3.2075 13.548 3.32978 13.6702C3.45205 13.7925 3.62021 13.8683 3.80468 13.8683H5.50686C5.72695 13.8683 5.98116 13.9281 6.21302 14.0244C6.44308 14.1201 6.66468 14.2574 6.82168 14.4144L8.02509 15.6182C8.15461 15.7474 8.32701 15.8123 8.5 15.8123C8.673 15.8123 8.84539 15.7474 8.97491 15.6182L10.1783 14.4144C10.3353 14.2574 10.5566 14.1201 10.787 14.0244C11.0185 13.9281 11.2731 13.8683 11.4928 13.8683H13.1953C13.3798 13.8683 13.548 13.7925 13.6702 13.6702C13.7925 13.548 13.8683 13.3798 13.8683 13.1953V11.4928C13.8683 11.2731 13.9281 11.0185 14.0244 10.787C14.1201 10.5566 14.2574 10.3353 14.4144 10.1783L15.6179 8.97491C15.7474 8.84539 15.8123 8.673 15.8123 8.5C15.8123 8.32701 15.7474 8.15461 15.6179 8.02509L14.4144 6.82168C14.2574 6.66468 14.1201 6.44308 14.0244 6.21302C13.9281 5.98116 13.8683 5.72695 13.8683 5.50686V3.80468C13.8683 3.62021 13.7925 3.45205 13.6702 3.32978C13.548 3.2075 13.3798 3.13142 13.1953 3.13142H11.4928C11.2731 3.13142 11.0185 3.07194 10.787 2.97563C10.5566 2.87993 10.3353 2.74256 10.1783 2.58557L8.97491 1.38185C8.84539 1.25233 8.673 1.18772 8.5 1.18772C8.32701 1.18772 8.15461 1.25233 8.02509 1.38185L6.82168 2.58557C6.66468 2.74256 6.44308 2.87993 6.21302 2.97563C5.98146 3.07194 5.72695 3.13142 5.50686 3.13142H3.80468C3.62021 3.13142 3.45205 3.2075 3.32978 3.32978C3.2075 3.45205 3.13142 3.62021 3.13142 3.80468V5.50686C3.13142 5.72695 3.07194 5.98116 2.97563 6.21302C2.87993 6.44308 2.74226 6.66468 2.58557 6.82168L1.38185 8.02509C1.25233 8.15461 1.18772 8.32701 1.18772 8.5C1.18772 8.673 1.25233 8.84539 1.38185 8.97491Z" fill="#23FFFF"/>
<path d="M6.71546 11.0546C6.50292 11.2672 6.15809 11.2672 5.94554 11.0546C5.733 10.8421 5.733 10.4975 5.94554 10.285L10.3005 5.93004C10.5131 5.71749 10.8576 5.71749 11.0702 5.93004C11.283 6.14258 11.283 6.48714 11.0702 6.69969L6.71546 11.0546Z" fill="#23FFFF"/>
<path d="M10.3187 11.0329C9.91796 11.0329 9.59277 10.708 9.59277 10.307C9.59277 9.90624 9.91796 9.58105 10.3187 9.58105H10.3253C10.7261 9.58105 11.051 9.90624 11.051 10.307C11.051 10.708 10.7261 11.0329 10.3253 11.0329H10.3187Z" fill="#23FFFF"/>
<path d="M6.6893 7.40374C6.28856 7.40374 5.96338 7.07856 5.96338 6.67782C5.96338 6.27709 6.28856 5.9519 6.6893 5.9519H6.69594C7.09668 5.9519 7.42158 6.27709 7.42158 6.67782C7.42158 7.07856 7.09668 7.40374 6.69594 7.40374H6.6893Z" fill="#23FFFF"/>
</svg>
