<svg viewBox="0 0 45 30" fill="none" xmlns="http://www.w3.org/2000/svg">
<g id="MAIL LOGO">
<path id="Vector" d="M44.5471 1.74254V28.4421C44.2903 29.4091 43.6794 29.6401 42.6962 29.6401C29.1268 29.6401 15.5596 29.6401 1.9923 29.6401C1.39007 29.6401 0.969167 29.5743 0.727415 29.4426C0.0766267 29.0854 0 28.5015 0 27.7536C0 19.2588 0 10.764 0 2.26922C0 0.996781 0.622727 0.477661 1.84984 0.477661C15.538 0.477661 29.2272 0.477661 42.9153 0.477661C43.7841 0.477661 44.3281 0.899648 44.5471 1.74254ZM6.95469 3.63771L22.2056 13.2225C22.2531 13.2527 22.3027 13.2527 22.3513 13.2225L37.5871 3.64634C37.6378 3.61504 37.6335 3.59885 37.5719 3.59885H6.96656C6.91692 3.59885 6.9126 3.6118 6.95469 3.63771ZM21.2407 16.2185C15.2077 12.4412 9.17471 8.65406 3.14386 4.85834C3.09529 4.82812 3.07047 4.84107 3.07047 4.89719V26.5124C3.07047 26.5556 3.10608 26.5923 3.15033 26.5923H41.4281C41.468 26.5923 41.5004 26.5599 41.5004 26.52V4.89719C41.5004 4.85726 41.4551 4.83028 41.4206 4.85294C35.2839 8.71126 29.1441 12.5696 22.9988 16.4301C22.4322 16.7873 21.817 16.579 21.2407 16.2185Z" fill="#2B2C2C"/>
</g>
</svg>
