<svg width="18" height="15" viewBox="0 0 18 15" fill="none" xmlns="http://www.w3.org/2000/svg">
<path fill-rule="evenodd" clip-rule="evenodd" d="M0 2.46137L8.67428 0.00378418L17.3486 2.46137V12.6982L8.67428 14.9963L0 12.6982V2.46137ZM1.14489 3.09264L8.67428 0.986344L16.2037 3.09264V11.8658L8.67428 13.8354L1.14489 11.8658V3.09264Z" fill="white"/>
<path d="M0.712612 2.90394L8.62918 4.97388L16.6456 2.82361L16.9106 3.81544L8.63655 6.03511L0.455444 3.89601L0.712612 2.90394Z" fill="white"/>
<path d="M9.15063 5.76147V14.2601H8.12244V5.76147H9.15063Z" fill="white"/>
<path d="M4.49331 1.21594L14.104 3.77074L13.5008 4.67415L4.22925 2.20967L4.49331 1.21594Z" fill="white"/>
<path fill-rule="evenodd" clip-rule="evenodd" d="M11.5406 5.11881V8.16322L13.8782 7.44021V4.28955L11.5406 5.11881Z" fill="white"/>
</svg>
