<svg viewBox="0 0 38 44" fill="none" xmlns="http://www.w3.org/2000/svg">
<g id="PDF LOGO">
<path id="Vector" d="M8.19562 35.3525C9.11179 35.3667 10.2232 35.4244 11.0118 35.2164C12.2286 34.8937 13.1412 34.0053 13.2431 32.693C13.4077 30.5807 11.856 29.5256 9.92965 29.5185C8.83608 29.5142 7.74679 29.5142 6.66391 29.5185C6.62829 29.5185 6.59766 29.5484 6.59766 29.584V38.0397C6.59766 38.0868 6.62188 38.111 6.66961 38.111H8.03817C8.09089 38.111 8.11654 38.0853 8.11654 38.0326V35.4301C8.11654 35.3767 8.14219 35.3511 8.19562 35.3525Z" stroke="#959696" stroke-width="0.0392647" stroke-miterlimit="10"/>
<path id="Vector_2" d="M14.7777 29.5975L14.792 38.0382C14.792 38.081 14.8283 38.1166 14.871 38.1166L18.1845 38.1109C20.6117 38.1074 22.5766 36.2052 22.5723 33.8635V33.7431C22.568 31.4028 20.5975 29.5084 18.1695 29.5127L14.8568 29.5184C14.8126 29.5184 14.7777 29.5526 14.7777 29.5975Z" stroke="#959696" stroke-width="0.0392647" stroke-miterlimit="10"/>
<path id="Vector_3" d="M25.9086 30.959C25.9086 30.9312 25.9314 30.9084 25.9585 30.9084H30.7367C30.7638 30.9084 30.7866 30.8856 30.7866 30.8585V29.5655C30.7866 29.5384 30.7638 29.5156 30.7367 29.5156H24.4296C24.4026 29.5156 24.3798 29.5384 24.3798 29.5655V38.0611C24.3798 38.0882 24.4026 38.111 24.4296 38.111H25.858C25.8858 38.111 25.9086 38.0882 25.9086 38.0611V34.6793C25.9086 34.6522 25.9314 34.6287 25.9585 34.6287H30.1874C30.2152 34.6287 30.238 34.6059 30.238 34.5788L30.2366 33.2893C30.2366 33.2615 30.2138 33.2387 30.186 33.2387H25.9585C25.9314 33.2387 25.9086 33.2159 25.9086 33.1889V30.959Z" stroke="#959696" stroke-width="0.0392647" stroke-miterlimit="10"/>
<path id="Vector_4" d="M8.12236 30.9369L8.11096 33.9354C8.11096 33.954 8.12664 33.9711 8.1473 33.9711L10.0445 33.9768C10.9571 33.981 11.6994 33.3363 11.7023 32.5363V32.3589C11.7058 31.5609 10.9685 30.9112 10.0559 30.9069L8.15869 30.9012C8.13875 30.9012 8.12236 30.9169 8.12236 30.9369Z" stroke="#959696" stroke-width="0.0392647" stroke-miterlimit="10"/>
<path id="Vector_5" d="M16.3201 30.9476L16.3002 36.6825C16.3002 36.7053 16.3187 36.7239 16.3415 36.7239L18.1453 36.731C19.6977 36.7367 20.9615 35.4814 20.9672 33.9283V33.736C20.9729 32.1829 19.7191 30.9183 18.166 30.9126L16.3614 30.9055C16.3386 30.9055 16.3201 30.924 16.3201 30.9476Z" stroke="#959696" stroke-width="0.0392647" stroke-miterlimit="10"/>
<path id="Vector_6" d="M37.0138 40.794C37.0138 42.4589 35.6638 43.8089 33.9982 43.8089H3.01497C1.35004 43.8089 0 42.4589 0 40.794V3.01497C0 1.35004 1.35004 0 3.01497 0H33.9982C35.6638 0 37.0138 1.35004 37.0138 3.01497V40.794ZM33.991 11.3154C33.991 11.3011 33.9853 11.2869 33.9754 11.2769L25.9699 3.03206C25.9599 3.02138 25.9457 3.01497 25.9314 3.01497L3.06982 3.01924C3.03776 3.01924 3.01354 3.04418 3.01354 3.07552V40.7277C3.01354 40.7598 3.03776 40.784 3.06982 40.784H33.9341C33.9654 40.784 33.9896 40.7598 33.9896 40.7277L33.991 11.3154ZM33.9882 6.90764L33.9896 3.07552C33.9896 3.0456 33.9654 3.02138 33.9369 3.02138H30.2608C30.2295 3.02138 30.2138 3.05842 30.2352 3.08122L33.9554 6.92046C33.9768 6.94183 33.9882 6.93756 33.9882 6.90764Z" fill="#2B2C2C"/>
<path id="Vector_7" d="M8.11654 35.4301V38.0326C8.11654 38.0853 8.09089 38.111 8.03817 38.111H6.66961C6.62188 38.111 6.59766 38.0868 6.59766 38.0397V29.584C6.59766 29.5484 6.62829 29.5185 6.66391 29.5185C7.74679 29.5142 8.83608 29.5142 9.92965 29.5185C11.856 29.5256 13.4077 30.5807 13.2431 32.693C13.1412 34.0053 12.2286 34.8937 11.0118 35.2164C10.2232 35.4244 9.11179 35.3667 8.19562 35.3525C8.14219 35.3511 8.11654 35.3767 8.11654 35.4301ZM8.12224 30.9369L8.11084 33.9355C8.11084 33.954 8.12651 33.9711 8.14717 33.9711L10.0444 33.9768C10.957 33.9811 11.6993 33.3363 11.7022 32.5363V32.3589C11.7057 31.561 10.9684 30.9112 10.0557 30.907L8.15857 30.9013C8.13862 30.9013 8.12224 30.9169 8.12224 30.9369Z" fill="#2B2C2C"/>
<path id="Vector_8" d="M14.7777 29.5975C14.7777 29.5526 14.8126 29.5184 14.8568 29.5184L18.1695 29.5127C20.5975 29.5084 22.568 31.4028 22.5723 33.7431V33.8635C22.5766 36.2052 20.6117 38.1074 18.1845 38.1109L14.871 38.1166C14.8283 38.1166 14.792 38.081 14.792 38.0382L14.7777 29.5975ZM16.3201 30.9475L16.3002 36.6825C16.3002 36.7053 16.3187 36.7238 16.3415 36.7238L18.1453 36.731C19.6977 36.7367 20.9615 35.4814 20.9672 33.9283V33.7359C20.9729 32.1829 19.7191 30.9183 18.166 30.9126L16.3614 30.9055C16.3386 30.9055 16.3201 30.924 16.3201 30.9475Z" fill="#2B2C2C"/>
<path id="Vector_9" d="M25.9086 30.959V33.1889C25.9086 33.2159 25.9314 33.2387 25.9585 33.2387H30.186C30.2138 33.2387 30.2366 33.2615 30.2366 33.2893L30.238 34.5788C30.238 34.6059 30.2152 34.6287 30.1874 34.6287H25.9585C25.9314 34.6287 25.9086 34.6522 25.9086 34.6793V38.0611C25.9086 38.0882 25.8858 38.111 25.858 38.111H24.4296C24.4026 38.111 24.3798 38.0882 24.3798 38.0611V29.5655C24.3798 29.5384 24.4026 29.5156 24.4296 29.5156H30.7367C30.7638 29.5156 30.7866 29.5384 30.7866 29.5655V30.8585C30.7866 30.8856 30.7638 30.9084 30.7367 30.9084H25.9585C25.9314 30.9084 25.9086 30.9312 25.9086 30.959Z" fill="#2B2C2C"/>
<path id="Vector_10" d="M8.12236 30.9369C8.12236 30.9169 8.13875 30.9012 8.15869 30.9012L10.0559 30.9069C10.9685 30.9112 11.7058 31.5609 11.7023 32.3589V32.5363C11.6994 33.3363 10.9571 33.981 10.0445 33.9768L8.1473 33.9711C8.12664 33.9711 8.11096 33.954 8.11096 33.9354L8.12236 30.9369Z" fill="white"/>
<path id="Vector_11" d="M16.3201 30.9476C16.3201 30.924 16.3386 30.9055 16.3614 30.9055L18.166 30.9126C19.7191 30.9183 20.9729 32.1829 20.9672 33.736V33.9283C20.9615 35.4814 19.6977 36.7367 18.1453 36.731L16.3415 36.7239C16.3187 36.7239 16.3002 36.7053 16.3002 36.6825L16.3201 30.9476Z" fill="white"/>
</g>
</svg>
