<svg viewBox="0 0 43 43" fill="none" xmlns="http://www.w3.org/2000/svg">
<g id="PRINT LOGO">
<path id="Vector" d="M35.8437 35.2751C35.8259 36.9121 35.8259 38.5492 35.8348 40.1862C35.8437 41.0784 35.7993 41.7886 34.9392 42.1091C34.7352 42.187 34.3982 42.2217 33.9371 42.2217C25.6014 42.2217 17.2568 42.2217 8.92101 42.2217C8.16725 42.2217 7.59084 42.0658 7.2982 41.3815C7.20953 41.191 7.16519 40.8965 7.16519 40.5067C7.16519 38.7657 7.16519 37.0334 7.16519 35.3097C7.16519 35.2578 7.12972 35.2231 7.07651 35.2231C5.30295 35.2231 3.52939 35.2231 1.74696 35.2231C0.984327 35.2231 0.372448 35.0412 0.106414 34.3223C0.0354712 34.1318 0 33.794 0 33.3089C0 26.1198 0 18.922 0 11.7329C0 10.9967 0.159621 10.4337 0.860177 10.1479C1.05527 10.0612 1.35677 10.0179 1.75583 10.0179C3.53826 10.0179 5.31182 10.0179 7.09425 10.0179C7.12972 10.0179 7.16519 9.98328 7.16519 9.94863C7.16519 7.28087 7.16519 4.6131 7.16519 1.93667C7.16519 1.20044 7.32481 0.637435 8.02537 0.342942C8.22046 0.264988 8.52196 0.22168 8.92101 0.22168C17.2922 0.22168 25.6634 0.22168 34.0258 0.22168C34.4603 0.22168 34.7795 0.264988 34.9835 0.342942C35.6752 0.637435 35.8348 1.20044 35.8348 1.93667C35.8348 4.58712 35.8348 7.24622 35.8348 9.93997C35.8348 9.98328 35.8703 10.0179 35.9235 10.0179C37.6616 10.0266 39.3997 10.0266 41.1466 10.0179C41.6078 10.0179 41.9359 10.0612 42.1398 10.1479C42.8847 10.451 43 11.04 43 11.8195C43 19.052 43 26.2757 43 33.5081C43 33.8979 42.9557 34.1837 42.8758 34.3743C42.5743 35.0759 41.9802 35.2231 41.2176 35.2231C39.444 35.2145 37.6616 35.2145 35.888 35.2231C35.8525 35.2231 35.8437 35.2404 35.8437 35.2751ZM32.9705 3.09732C32.9705 3.05402 32.935 3.01937 32.8907 3.01937H10.1093C10.0738 3.01937 10.0384 3.05402 10.0384 3.09732V9.94863C10.0384 9.98328 10.0738 10.0179 10.1093 10.0179H32.8907C32.935 10.0179 32.9705 9.98328 32.9705 9.94863V3.09732ZM34.4426 24.0324C35.0278 24.041 35.5599 24.4135 35.7461 24.9332C35.8082 25.1064 35.8348 25.4355 35.8348 25.9206C35.8348 28.06 35.8348 30.1994 35.8348 32.3302C35.8348 32.3821 35.8703 32.4168 35.9235 32.4168H40.0648C40.1002 32.4168 40.1357 32.3908 40.1357 32.3561V12.9109C40.1357 12.8589 40.0914 12.8243 40.047 12.8243H2.89977C2.88204 12.8243 2.8643 12.8329 2.8643 12.8589V32.3128C2.8643 32.3821 2.90864 32.4168 2.97958 32.4168H7.10311C7.13859 32.4168 7.16519 32.3908 7.16519 32.3561C7.16519 30.1561 7.16519 27.9474 7.16519 25.7387C7.16519 25.3403 7.20953 25.0544 7.28934 24.8552C7.59084 24.1796 8.16725 24.0237 8.92101 24.0237C17.4252 24.0237 25.9383 24.0237 34.4426 24.0324ZM32.9705 26.8907C32.9705 26.856 32.935 26.8214 32.8907 26.8214H10.1093C10.065 26.8214 10.0384 26.856 10.0384 26.8907V39.346C10.0384 39.3893 10.065 39.424 10.1093 39.424H32.8907C32.935 39.424 32.9705 39.3893 32.9705 39.346V26.8907Z" fill="#3E3E3E"/>
<path id="Vector_2" d="M35.8171 18.4716C35.8171 19.2165 35.2052 19.8142 34.4514 19.8142H30.053C29.2903 19.8142 28.6785 19.2165 28.6785 18.4716V18.3677C28.6785 17.6315 29.2903 17.0251 30.053 17.0251H34.4514C35.2052 17.0251 35.8171 17.6315 35.8171 18.3677V18.4716Z" fill="#3E3E3E"/>
</g>
</svg>
