<svg viewBox="0 0 42 42" fill="none" xmlns="http://www.w3.org/2000/svg">
<path d="M29.0353 13.1774C29.0432 13.1774 29.0537 13.1774 29.0642 13.1774C29.3385 13.1774 29.5931 13.2627 29.8018 13.4097L29.7979 13.4071C29.9501 13.5397 30.0525 13.726 30.0774 13.936V13.94C30.1037 14.1001 30.1181 14.2838 30.1181 14.4715C30.1181 14.5568 30.1155 14.6408 30.1089 14.7248V14.713C29.8136 17.8223 28.5326 25.3626 27.8816 28.8434C27.606 30.3173 27.0639 30.8108 26.5389 30.8581C25.3984 30.9644 24.5321 30.1047 23.427 29.3802C21.6971 28.2449 20.7193 27.5388 19.0406 26.4323C17.0994 25.1553 18.3581 24.4505 19.4632 23.3033C19.7533 23.0015 24.7815 18.4274 24.8799 18.0127C24.8852 17.9877 24.8878 17.9602 24.8878 17.9313C24.8878 17.8289 24.8497 17.7357 24.788 17.6648C24.7198 17.6202 24.6345 17.5953 24.5452 17.5953C24.4862 17.5953 24.4297 17.6071 24.3772 17.6268L24.3799 17.6255C24.2066 17.6648 21.4434 19.491 16.0901 23.1038C15.5061 23.5645 14.7684 23.8559 13.9652 23.89H13.9573C12.8194 23.7522 11.7864 23.4989 10.806 23.138L10.9031 23.1695C9.67199 22.7678 8.69418 22.5565 8.77818 21.8766C8.8228 21.5231 9.31018 21.1613 10.2403 20.7912C15.9698 18.2948 19.7905 16.6494 21.7024 15.8549C23.8116 14.7353 26.2567 13.814 28.8279 13.2168L29.034 13.1761L29.0353 13.1774ZM20.9083 1.34521C10.0119 1.37146 1.18799 10.2112 1.18799 21.1115C1.18799 32.0275 10.0369 40.8777 20.9542 40.8777C31.8716 40.8777 40.7205 32.0288 40.7205 21.1115C40.7205 10.2112 31.8966 1.37146 21.0028 1.34521H21.0002C20.9696 1.34521 20.9389 1.34521 20.9083 1.34521Z" fill="white"/>
</svg>
