<svg viewBox="0 0 42 42" fill="none" xmlns="http://www.w3.org/2000/svg">
<path d="M29.0353 13.1775C29.0432 13.1775 29.0537 13.1775 29.0642 13.1775C29.3385 13.1775 29.5931 13.2628 29.8018 13.4098L29.7979 13.4072C29.9501 13.5398 30.0525 13.7261 30.0774 13.9361V13.9401C30.1037 14.1002 30.1181 14.284 30.1181 14.4716C30.1181 14.557 30.1155 14.641 30.1089 14.725V14.7131C29.8136 17.8225 28.5326 25.3628 27.8816 28.8435C27.606 30.3175 27.0639 30.811 26.5389 30.8582C25.3984 30.9645 24.5321 30.1048 23.427 29.3803C21.6971 28.245 20.7193 27.5389 19.0406 26.4325C17.0994 25.1554 18.3581 24.4506 19.4632 23.3035C19.7533 23.0016 24.7815 18.4275 24.8799 18.0128C24.8852 17.9878 24.8878 17.9603 24.8878 17.9314C24.8878 17.829 24.8497 17.7358 24.788 17.665C24.7198 17.6203 24.6345 17.5954 24.5452 17.5954C24.4862 17.5954 24.4297 17.6072 24.3772 17.6269L24.3799 17.6256C24.2066 17.665 21.4434 19.4911 16.0901 23.104C15.5061 23.5646 14.7684 23.856 13.9652 23.8901H13.9573C12.8194 23.7523 11.7864 23.499 10.806 23.1381L10.9031 23.1696C9.67199 22.768 8.69418 22.5566 8.77818 21.8768C8.8228 21.5233 9.31018 21.1615 10.2403 20.7913C15.9698 18.295 19.7905 16.6495 21.7024 15.855C23.8116 14.7355 26.2567 13.8141 28.8279 13.2169L29.034 13.1762L29.0353 13.1775ZM20.9083 1.34534C10.0119 1.37159 1.18799 10.2113 1.18799 21.1116C1.18799 32.0276 10.0369 40.8778 20.9542 40.8778C31.8716 40.8778 40.7205 32.029 40.7205 21.1116C40.7205 10.2113 31.8966 1.37159 21.0028 1.34534H21.0002C20.9696 1.34534 20.9389 1.34534 20.9083 1.34534Z" fill="#40B3E0"/>
</svg>
