<svg viewBox="0 0 40 40" fill="none" xmlns="http://www.w3.org/2000/svg">
<g clip-path="url(#clip0_662_2)">
<path fill-rule="evenodd" clip-rule="evenodd" d="M19.9942 0C8.96855 0 0 8.97106 0 19.9998C0 24.3737 1.41054 28.43 3.80834 31.7225L1.31632 39.1532L9.0037 36.6963C12.1655 38.7892 15.9387 40 20.0058 40C31.0314 40 40 31.0286 40 20.0002C40 8.97142 31.0314 0.000330607 20.0058 0.000330607L19.9942 0ZM14.4107 10.159C14.0229 9.23023 13.729 9.19506 13.1415 9.17117C12.9414 9.15955 12.7185 9.14795 12.4714 9.14795C11.707 9.14795 10.9079 9.37127 10.4259 9.86504C9.83836 10.4647 8.38069 11.8636 8.38069 14.7327C8.38069 17.6017 10.473 20.3764 10.755 20.7647C11.0489 21.1523 14.834 27.1253 20.7111 29.5596C25.307 31.4643 26.6708 31.2878 27.7167 31.0644C29.2447 30.7353 31.1608 29.606 31.6429 28.2425C32.1249 26.8784 32.1249 25.7143 31.9835 25.4674C31.8426 25.2205 31.4544 25.0798 30.8669 24.7855C30.2794 24.4915 27.4228 23.0806 26.8821 22.8924C26.3529 22.6926 25.8477 22.7633 25.4483 23.3278C24.884 24.1155 24.3317 24.9153 23.8848 25.3971C23.5322 25.7734 22.9559 25.8205 22.4743 25.6204C21.8277 25.3503 20.0178 24.7148 17.7842 22.7278C16.0561 21.1878 14.8808 19.2715 14.5401 18.6954C14.1991 18.1077 14.5049 17.7663 14.7749 17.449C15.0689 17.0844 15.3509 16.8259 15.6448 16.4847C15.9387 16.1439 16.1033 15.9674 16.2914 15.5676C16.4914 15.1796 16.35 14.7798 16.2091 14.4858C16.0681 14.1918 14.8927 11.3228 14.4107 10.159Z" fill="#67C15E"/>
</g>
<defs>
<clipPath id="clip0_662_2">
<rect width="40" height="40" fill="white"/>
</clipPath>
</defs>
</svg>
