<?xml version="1.0" encoding="UTF-8"?>
<!DOCTYPE svg PUBLIC "-//W3C//DTD SVG 1.1//EN" "http://www.w3.org/Graphics/SVG/1.1/DTD/svg11.dtd">
<!-- Creator: CorelDRAW 2020 (64-Bit) -->
<svg xmlns="http://www.w3.org/2000/svg" xml:space="preserve" width="750px" height="750px" version="1.1" style="shape-rendering:geometricPrecision; text-rendering:geometricPrecision; image-rendering:optimizeQuality; fill-rule:evenodd; clip-rule:evenodd"
viewBox="0 0 261.19 261.19"
 xmlns:xlink="http://www.w3.org/1999/xlink"
 xmlns:xodm="http://www.corel.com/coreldraw/odm/2003">
 <defs>
  <style type="text/css">
   <![CDATA[
    .fil0 {fill:#2B2A29}
    .fil1 {fill:#F9B004}
   ]]>
  </style>
 </defs>
 <g id="Layer_x0020_1">
  <metadata id="CorelCorpID_0Corel-Layer"/>
  <path class="fil0" d="M34.82 0l191.55 0c19.15,0 34.82,15.67 34.82,34.82l0 191.55c0,19.15 -15.67,34.82 -34.82,34.82l-191.55 0c-19.15,0 -34.82,-15.67 -34.82,-34.82l0 -191.55c0,-19.15 15.67,-34.82 34.82,-34.82z"/>
  <polygon class="fil1" points="42.26,44.44 80.59,44.44 80.59,53.31 51.12,53.31 51.12,170.27 168.08,170.27 168.08,53.31 138.62,53.31 138.62,44.44 176.95,44.44 176.95,179.13 42.26,179.13 "/>
  <path class="fil1" d="M84.07 80.92l134.69 0 0 134.7 -134.69 0 0 -134.7zm8.86 8.87l116.96 0 0 116.96 -116.96 0 0 -116.96z"/>
 </g>
</svg>
